<svg width="412" height="64" viewBox="0 0 412 64" fill="none" xmlns="http://www.w3.org/2000/svg">
<g clip-path="url(#clip0_1857_7854)">
<path d="M15.4087 12.9978L12.2416 14.8164C12.19 14.846 12.1796 14.9156 12.2203 14.9588L18.7373 21.8904C18.7719 21.9272 18.8297 21.9294 18.8678 21.8962C19.5922 21.2653 20.4758 20.9033 20.8344 20.7611C21.1966 20.6174 22.2168 20.2957 23.1779 20.3004C23.215 20.3006 23.2489 20.2794 23.2641 20.2457L25.6518 14.9687C25.6845 14.8964 25.7877 14.8964 25.8204 14.9687L28.2098 20.2494C28.2241 20.2811 28.2552 20.302 28.2902 20.3038C29.1917 20.3491 30.185 20.5806 30.6378 20.7467C31.0858 20.911 31.8334 21.2881 32.5147 21.7301C32.5524 21.7546 32.6026 21.7488 32.6334 21.716L39.071 14.8626C39.1104 14.8207 39.1021 14.7537 39.0538 14.7226L36.0659 12.7999C36.0288 12.776 35.9798 12.7816 35.949 12.8133L31.3786 17.5372C31.3337 17.5838 31.2556 17.5709 31.2282 17.5125L27.8882 10.4202C27.873 10.3878 27.8403 10.3672 27.8045 10.3672H23.483C23.447 10.3672 23.4143 10.388 23.3991 10.4204L20.1302 17.4224C20.1032 17.4803 20.0264 17.4938 19.981 17.4487L15.5204 13.0124C15.4908 12.983 15.445 12.977 15.4087 12.9978Z" fill="#2225CF"/>
<path d="M27.8051 10.2734C27.8769 10.2734 27.9423 10.3148 27.9728 10.3794L31.3128 17.4717L35.8832 12.7478C35.9446 12.6843 36.0426 12.673 36.117 12.7208L39.1048 14.6436C39.2014 14.7059 39.218 14.84 39.1394 14.9237L32.7019 21.777C32.6401 21.8428 32.5399 21.8541 32.4648 21.8054C31.7878 21.3662 31.0466 20.9925 30.6065 20.8311C30.1628 20.6684 29.1787 20.4387 28.2863 20.3939C28.2171 20.3904 28.1549 20.3489 28.1261 20.2854L25.7369 15.0047L23.3492 20.2818C23.3187 20.3492 23.251 20.391 23.1781 20.3906C22.2337 20.3861 21.2262 20.7033 20.8694 20.8448C20.5119 20.9866 19.6412 21.3438 18.9296 21.9637C18.8549 22.0288 18.7399 22.0254 18.6704 21.9515L12.1534 15.02C12.0721 14.9335 12.0929 14.7941 12.196 14.7349L15.3633 12.9165C15.4358 12.8748 15.5274 12.8867 15.5866 12.9456L20.0472 17.3818L23.316 10.38C23.3463 10.315 23.4118 10.2734 23.4838 10.2734H27.8051Z" stroke="white"/>
<path d="M25.4575 20.8516C25.4575 20.8516 26.5673 27.6988 26.5673 34.5568C26.5673 41.4147 26.6598 45.6865 26.6598 45.6865C19.2024 45.6865 13.0645 40.1269 13.0645 33.269C13.0645 26.411 18.0001 20.8516 25.4575 20.8516ZM22.2539 24.2721L22.2366 24.2755C21.5382 24.451 16.2047 25.9869 15.768 32.0668C15.5457 35.1622 17.0776 37.1475 18.742 38.3742C20.3985 39.5949 22.1909 40.069 22.533 40.1518C22.5331 40.1521 22.5333 40.1523 22.5334 40.1527L23.0554 42.6619C23.0776 42.7686 23.1877 42.8328 23.2922 42.8001L24.8928 42.2973C24.9641 42.2749 25.0149 42.2122 25.0214 42.138L25.8253 33.0225C25.8278 32.9944 25.8236 32.9658 25.8132 32.9395L22.4492 24.3862L22.4425 24.3713C22.4084 24.3029 22.3342 24.2599 22.2539 24.2721Z" fill="#2225CF"/>
<mask id="mask0_1857_7854" style="mask-type:luminance" maskUnits="userSpaceOnUse" x="12" y="20" width="15" height="26">
<path d="M26.9387 20.6719H12.8809V45.8747H26.9387V20.6719Z" fill="white"/>
<path d="M25.4595 20.8594C25.4595 20.8594 26.5693 27.7066 26.5693 34.5646C26.5693 41.4225 26.6618 45.6943 26.6618 45.6943C19.2043 45.6943 13.0664 40.1348 13.0664 33.2768C13.0664 26.4189 18.002 20.8594 25.4595 20.8594ZM22.2559 24.2799L22.2386 24.2833C21.5402 24.4589 16.2066 25.9948 15.77 32.0746C15.5477 35.17 17.0795 37.1553 18.744 38.382C20.4005 39.6027 22.1929 40.0768 22.535 40.1596C22.535 40.16 22.5353 40.1601 22.5353 40.1605L23.0574 42.6698C23.0796 42.7765 23.1897 42.8407 23.2942 42.8079L24.8948 42.3051C24.9661 42.2827 25.0169 42.22 25.0234 42.1458L25.8272 33.0303C25.8297 33.0022 25.8255 32.9737 25.8151 32.9474L22.4512 24.394L22.4445 24.3791C22.4104 24.3107 22.3361 24.2677 22.2559 24.2799Z" fill="black"/>
</mask>
<g mask="url(#mask0_1857_7854)">
<path d="M25.4589 20.8558L25.6415 20.8266L25.6164 20.6719H25.4589V20.8558ZM26.6612 45.6907V45.8747H26.8502L26.8461 45.6867L26.6612 45.6907ZM22.2553 24.2764L22.2272 24.0945L22.2233 24.0952L22.2194 24.0959L22.2553 24.2764ZM22.238 24.2798L22.2021 24.0993L22.1973 24.1003L22.1927 24.1014L22.238 24.2798ZM22.5344 40.1561L22.7135 40.1101L22.6858 40.0034L22.5781 39.9772L22.5344 40.1561ZM22.5348 40.157L22.7159 40.1196L22.7158 40.1191L22.5348 40.157ZM22.4506 24.3905L22.6228 24.3235L22.6213 24.3195L22.6195 24.3156L22.4506 24.3905ZM22.4439 24.3756L22.6128 24.3007L22.6113 24.2972L22.6096 24.2938L22.4439 24.3756ZM25.4589 20.8558C25.2763 20.8851 25.2763 20.8851 25.2763 20.8852C25.2763 20.8852 25.2763 20.8853 25.2763 20.8854C25.2763 20.8856 25.2764 20.8859 25.2765 20.8862C25.2766 20.8871 25.2768 20.8883 25.2771 20.8899C25.2776 20.8931 25.2783 20.898 25.2794 20.9045C25.2815 20.9175 25.2846 20.937 25.2886 20.9628C25.2967 21.0143 25.3086 21.0908 25.3237 21.1908C25.3539 21.3908 25.3972 21.6843 25.4491 22.058C25.5529 22.8056 25.6914 23.8739 25.8299 25.1563C26.107 27.7218 26.3837 31.141 26.3837 34.561H26.5687H26.7537C26.7537 31.1231 26.4756 27.6897 26.1977 25.117C26.0588 23.8304 25.9198 22.7583 25.8155 22.0077C25.7634 21.6324 25.7199 21.3374 25.6895 21.1361C25.6743 21.0354 25.6623 20.9582 25.6541 20.9061C25.65 20.88 25.6469 20.8602 25.6448 20.8469C25.6437 20.8402 25.6429 20.8352 25.6424 20.8318C25.6421 20.8301 25.6419 20.8288 25.6417 20.8279C25.6416 20.8275 25.6416 20.8272 25.6416 20.8269C25.6415 20.8268 25.6415 20.8266 25.6415 20.8266C25.6415 20.8265 25.6415 20.8266 25.4589 20.8558ZM26.5687 34.561H26.3837C26.3837 37.9908 26.4069 40.774 26.43 42.6999C26.4416 43.6627 26.4531 44.4113 26.4618 44.9192C26.4661 45.1733 26.4698 45.367 26.4723 45.4974C26.4736 45.5625 26.4746 45.6118 26.4752 45.6449C26.4756 45.6613 26.4758 45.6738 26.476 45.6821C26.4761 45.6863 26.4762 45.6895 26.4762 45.6915C26.4762 45.6926 26.4762 45.6933 26.4763 45.6939C26.4763 45.6942 26.4763 45.6944 26.4763 45.6944C26.4763 45.6944 26.4763 45.6948 26.6612 45.6907C26.8461 45.6867 26.8461 45.6867 26.8461 45.6867C26.8461 45.6867 26.8461 45.6863 26.8461 45.686C26.8461 45.6856 26.8461 45.6847 26.8461 45.6838C26.846 45.6817 26.846 45.6786 26.8459 45.6744C26.8457 45.6661 26.8454 45.6538 26.8451 45.6374C26.8444 45.6045 26.8434 45.5553 26.8422 45.4902C26.8396 45.3602 26.836 45.1666 26.8317 44.913C26.823 44.4056 26.8115 43.6578 26.7999 42.6955C26.7768 40.7709 26.7537 37.9892 26.7537 34.561H26.5687ZM26.6612 45.6907V45.5068C19.2903 45.5068 13.2508 40.0148 13.2508 33.2733H13.0658H12.8809C12.8809 40.2477 19.1172 45.8747 26.6612 45.8747V45.6907ZM13.0658 33.2733H13.2508C13.2508 26.5095 18.1109 21.0398 25.4589 21.0398V20.8558V20.6719C17.892 20.6719 12.8809 26.3211 12.8809 33.2733H13.0658ZM22.2553 24.2764L22.2194 24.0959L22.2021 24.0993L22.238 24.2798L22.2739 24.4603L22.2912 24.4568L22.2553 24.2764ZM22.238 24.2798L22.1927 24.1014C21.4844 24.2794 16.031 25.8468 15.5849 32.058L15.7694 32.0711L15.9539 32.0842C16.3811 26.1356 21.5948 24.6312 22.2833 24.4582L22.238 24.2798ZM15.7694 32.0711L15.5849 32.058C15.3569 35.233 16.9334 37.2734 18.6333 38.5261L18.7434 38.3784L18.8535 38.2307C17.2245 37.03 15.7373 35.0999 15.9539 32.0842L15.7694 32.0711ZM18.7434 38.3784L18.6333 38.5261C20.3189 39.7684 22.1392 40.2499 22.4907 40.3349L22.5344 40.1561L22.5781 39.9772C22.2454 39.8969 20.4809 39.43 18.8535 38.2307L18.7434 38.3784ZM22.5344 40.1561L22.3553 40.202C22.3571 40.209 22.3591 40.2151 22.3609 40.2199C22.3627 40.2247 22.3643 40.2285 22.3655 40.2311C22.3667 40.2337 22.3677 40.2359 22.3681 40.2366C22.3683 40.2372 22.3685 40.2375 22.3686 40.2375C22.3687 40.2377 22.3685 40.2376 22.3684 40.2374C22.3682 40.237 22.3675 40.2355 22.3666 40.2335C22.3657 40.2315 22.3644 40.2287 22.363 40.2252C22.3602 40.2182 22.3565 40.2077 22.3537 40.1949L22.5348 40.157L22.7158 40.1191C22.713 40.106 22.7092 40.0953 22.7064 40.0884C22.7049 40.0847 22.7036 40.0817 22.7027 40.0797C22.7017 40.0777 22.701 40.0762 22.7007 40.0757C22.7006 40.0755 22.7005 40.0751 22.7005 40.0753C22.7005 40.0753 22.7007 40.0757 22.7009 40.076C22.7013 40.077 22.7023 40.0788 22.7034 40.0814C22.7046 40.0839 22.7062 40.0878 22.7079 40.0924C22.7097 40.0972 22.7117 40.1031 22.7135 40.1101L22.5344 40.1561ZM22.5348 40.157L22.3536 40.1943L22.8757 42.7034L23.0568 42.6662L23.2379 42.6289L22.7159 40.1196L22.5348 40.157ZM23.0568 42.6662L22.8757 42.7034C22.9201 42.917 23.1403 43.0454 23.3493 42.9797L23.2936 42.8044L23.2379 42.6289L23.0568 42.6662ZM23.2936 42.8044L23.3493 42.9797L24.9499 42.4771L24.8942 42.3016L24.8385 42.1263L23.2379 42.6289L23.2936 42.8044ZM24.8942 42.3016L24.9499 42.4771C25.0925 42.4322 25.194 42.3066 25.2071 42.1583L25.0228 42.1423L24.8385 42.1263L24.8942 42.3016ZM25.0228 42.1423L25.2071 42.1583L26.0109 33.043L25.8267 33.0268L25.6424 33.0108L24.8385 42.1263L25.0228 42.1423ZM25.8267 33.0268L26.0109 33.043C26.0159 32.9861 26.0074 32.9291 25.9868 32.8769L25.8146 32.9438L25.6424 33.0108L25.8267 33.0268ZM25.8146 32.9438L25.9868 32.8769L22.6228 24.3235L22.4506 24.3905L22.2783 24.4575L25.6424 33.0108L25.8146 32.9438ZM22.4506 24.3905L22.6195 24.3156L22.6128 24.3007L22.4439 24.3756L22.275 24.4505L22.2816 24.4654L22.4506 24.3905ZM22.4439 24.3756L22.6096 24.2938C22.5424 24.159 22.3928 24.0693 22.2272 24.0945L22.2553 24.2764L22.2833 24.4582C22.2829 24.4582 22.282 24.4583 22.2808 24.4581C22.2797 24.4579 22.2789 24.4576 22.2785 24.4573C22.2781 24.4571 22.2779 24.457 22.278 24.457C22.278 24.4571 22.2782 24.4573 22.2783 24.4575L22.4439 24.3756Z" fill="white"/>
</g>
<path d="M25.4767 20.8516C25.4767 20.8516 38.1284 20.8517 38.1284 33.0852C38.1284 45.3187 26.6603 45.6867 26.6603 45.6867C26.6603 45.6867 26.2888 44.0785 25.4769 42.3983C24.7838 40.9642 23.5134 38.7603 23.295 36.94C22.8213 32.9922 25.4703 27.3546 25.4767 27.3409V20.8516ZM30.3615 26.5984C30.3615 26.5992 30.3615 26.6005 30.3613 26.6022C30.3611 26.6055 30.3609 26.6107 30.3604 26.6176C30.3594 26.6316 30.3578 26.6527 30.3552 26.6809C30.3498 26.7372 30.3406 26.8214 30.3241 26.9317C30.2912 27.1522 30.2298 27.4769 30.1169 27.8897C29.8911 28.7154 29.4581 29.8948 28.6303 31.3026C27.8012 32.7123 27.2876 33.5196 26.9959 34.1765C26.6997 34.8432 26.6293 35.3607 26.6761 36.1931C26.7711 37.8806 28.3664 39.7495 30.5464 39.7495C32.7348 39.7493 34.0579 37.8712 34.1523 36.1931C34.1991 35.3607 34.1288 34.8432 33.8326 34.1765C33.5408 33.5196 33.0273 32.7123 32.1982 31.3026C31.3707 29.8953 30.9576 28.7167 30.7516 27.8917C30.6485 27.4792 30.5973 27.155 30.5718 26.9347C30.559 26.8246 30.5527 26.7405 30.5496 26.6843C30.5479 26.6562 30.5472 26.6351 30.5468 26.6212C30.5466 26.6143 30.5464 26.6091 30.5464 26.6058V26.6015L30.3615 26.5977V26.5984Z" fill="#EE1B24"/>
<mask id="mask1_1857_7854" style="mask-type:luminance" maskUnits="userSpaceOnUse" x="23" y="20" width="16" height="27">
<path d="M38.4073 20.6719H23.0547V46.0587H38.4073V20.6719Z" fill="white"/>
<path d="M25.4787 20.8594C25.4787 20.8594 38.1304 20.8595 38.1304 33.093C38.1304 45.3265 26.6622 45.6945 26.6622 45.6945C26.6622 45.6945 26.2907 44.0863 25.4789 42.4061C24.7858 40.972 23.5154 38.7681 23.297 36.9478C22.8232 33 25.4722 27.3624 25.4787 27.3487V20.8594ZM30.3634 26.6062C30.3634 26.607 30.3634 26.6083 30.3632 26.61C30.3631 26.6133 30.3629 26.6185 30.3623 26.6255C30.3614 26.6394 30.3597 26.6606 30.3571 26.6887C30.3518 26.745 30.3425 26.8292 30.3261 26.9395C30.2931 27.16 30.2317 27.4847 30.1189 27.8975C29.893 28.7232 29.46 29.9026 28.6323 31.3105C27.8032 32.7202 27.2896 33.5274 26.9978 34.1843C26.7016 34.851 26.6313 35.3685 26.6781 36.2009C26.773 37.8884 28.3683 39.7573 30.5484 39.7573C32.7368 39.7571 34.0599 37.879 34.1542 36.2009C34.201 35.3685 34.1307 34.851 33.8346 34.1843C33.5427 33.5274 33.0292 32.7202 32.2002 31.3105C31.3726 29.9031 30.9596 28.7245 30.7535 27.8995C30.6505 27.487 30.5993 27.1628 30.5737 26.9425C30.561 26.8324 30.5547 26.7483 30.5515 26.6921C30.5499 26.664 30.5491 26.6429 30.5488 26.629C30.5486 26.6221 30.5484 26.6169 30.5484 26.6136V26.6093L30.3634 26.6055V26.6062Z" fill="black"/>
</mask>
<g mask="url(#mask1_1857_7854)">
<path fill-rule="evenodd" clip-rule="evenodd" d="M25.478 20.8558V20.6719H25.2931V20.8558H25.478ZM26.6616 45.6909L26.4813 45.7321L26.5154 45.8797L26.6675 45.8747L26.6616 45.6909ZM25.478 27.3452L25.6456 27.4231L25.663 27.3861V27.3452H25.478ZM30.3628 26.6027L30.5476 26.6114L30.5478 26.607V26.6027H30.3628ZM30.5478 26.61H30.3628V26.6125L30.5478 26.61ZM30.5478 26.6057H30.7327V26.4255L30.5517 26.4218L30.5478 26.6057ZM30.3628 26.602L30.3667 26.418L30.1778 26.4142V26.602H30.3628ZM25.478 20.8558C25.478 21.0398 25.478 21.0398 25.478 21.0398C25.4781 21.0398 25.4781 21.0398 25.4783 21.0398C25.4785 21.0398 25.479 21.0398 25.4797 21.0398C25.481 21.0398 25.483 21.0398 25.4858 21.0398C25.4914 21.0399 25.5 21.04 25.5115 21.0401C25.5344 21.0405 25.5689 21.0412 25.6142 21.0427C25.7047 21.0456 25.8383 21.0515 26.0089 21.0633C26.35 21.0868 26.8386 21.134 27.4253 21.2286C28.5997 21.4179 30.1625 21.796 31.7231 22.5505C33.2829 23.3047 34.8365 24.4329 36.0004 26.121C37.1633 27.8077 37.9448 30.0644 37.9448 33.0895H38.1297H38.3147C38.3147 29.9978 37.5149 27.6669 36.3056 25.9129C35.0971 24.1603 33.4877 22.9947 31.8847 22.2196C30.2823 21.4449 28.6823 21.0585 27.4845 20.8654C26.8851 20.7688 26.3852 20.7204 26.0345 20.6962C25.8591 20.6841 25.7209 20.678 25.6261 20.675C25.5787 20.6734 25.5422 20.6727 25.5172 20.6723C25.5048 20.6721 25.4952 20.672 25.4886 20.6719C25.4854 20.6719 25.4828 20.6719 25.4811 20.6719C25.4802 20.6719 25.4795 20.6719 25.479 20.6719C25.4787 20.6719 25.4785 20.6719 25.4784 20.6719C25.4782 20.6719 25.478 20.6719 25.478 20.8558ZM38.1297 33.0895H37.9448C37.9448 39.1345 35.1186 42.2266 32.3043 43.8178C30.8918 44.6166 29.4775 45.0393 28.4153 45.2623C27.8845 45.3738 27.4427 45.435 27.1343 45.4683C26.9802 45.4851 26.8595 45.4948 26.7778 45.5003C26.737 45.5031 26.7059 45.5048 26.6853 45.5057C26.675 45.5062 26.6673 45.5066 26.6624 45.5068C26.6599 45.507 26.6581 45.507 26.6569 45.507C26.6564 45.507 26.656 45.507 26.6558 45.507C26.6556 45.507 26.6556 45.507 26.6556 45.5071C26.6556 45.5071 26.6556 45.507 26.6616 45.6909C26.6675 45.8747 26.6677 45.8747 26.6679 45.8747C26.668 45.8747 26.6682 45.8747 26.6684 45.8747C26.6689 45.8747 26.6696 45.8747 26.6704 45.8747C26.6721 45.8747 26.6744 45.8745 26.6774 45.8743C26.6835 45.8742 26.6922 45.8738 26.7036 45.8732C26.7264 45.8721 26.7598 45.8703 26.8029 45.8673C26.8892 45.8615 27.0149 45.8513 27.1744 45.8341C27.4932 45.7997 27.9473 45.7366 28.4917 45.6223C29.5796 45.394 31.0326 44.9602 32.4872 44.1377C35.4068 42.4869 38.3147 39.2782 38.3147 33.0895H38.1297ZM26.6616 45.6909C26.8419 45.6497 26.8419 45.6497 26.8418 45.6497C26.8418 45.6497 26.8418 45.6494 26.8417 45.6494C26.8417 45.649 26.8416 45.6486 26.8415 45.6482C26.8413 45.6473 26.841 45.646 26.8406 45.6444C26.8398 45.6411 26.8387 45.6361 26.8371 45.6299C26.8341 45.6172 26.8296 45.5986 26.8236 45.5745C26.8116 45.5261 26.7936 45.4556 26.7696 45.3659C26.7214 45.1867 26.6489 44.9304 26.5508 44.6214C26.3547 44.0038 26.0558 43.173 25.6449 42.3229L25.4782 42.4026L25.3115 42.4823C25.7125 43.3121 26.0054 44.1256 26.198 44.7321C26.2942 45.0353 26.3652 45.286 26.4121 45.4608C26.4356 45.5482 26.453 45.6164 26.4645 45.6626C26.4702 45.6858 26.4745 45.7034 26.4773 45.715C26.4787 45.7209 26.4797 45.7253 26.4804 45.7281C26.4807 45.7296 26.481 45.7307 26.4811 45.7312C26.4812 45.7316 26.4812 45.7318 26.4813 45.732C26.4813 45.7321 26.4813 45.7321 26.4813 45.7321C26.4813 45.7321 26.4813 45.7321 26.6616 45.6909ZM25.4782 42.4026L25.6449 42.3229C25.2924 41.5934 24.8093 40.7 24.3781 39.7431C23.9485 38.7896 23.5858 37.8041 23.48 36.9226L23.2963 36.9443L23.1127 36.9662C23.2253 37.9047 23.607 38.9314 24.0405 39.8934C24.4724 40.852 24.971 41.7777 25.3115 42.4823L25.4782 42.4026ZM23.2963 36.9443L23.48 36.9226C23.2481 34.9895 23.7812 32.6246 24.3835 30.7249C24.984 28.831 25.6442 27.4262 25.6456 27.4231L25.478 27.3452L25.3105 27.2673C25.3055 27.2779 24.638 28.6989 24.0307 30.6141C23.4254 32.5235 22.8709 34.9514 23.1127 36.9662L23.2963 36.9443ZM25.478 27.3452H25.663V20.8558H25.478H25.2931V27.3452H25.478ZM30.3628 26.6027L30.178 26.594C30.178 26.5945 30.178 26.595 30.178 26.5952C30.178 26.5955 30.178 26.5957 30.178 26.5958C30.178 26.5962 30.178 26.5964 30.178 26.5965L30.3626 26.6065L30.5474 26.6164C30.5474 26.6148 30.5474 26.6135 30.5476 26.6126C30.5476 26.6121 30.5476 26.6116 30.5476 26.6114C30.5476 26.6111 30.5476 26.6113 30.5476 26.6114L30.3628 26.6027ZM30.3626 26.6065L30.178 26.5965C30.1776 26.6005 30.1775 26.6042 30.1771 26.6097L30.3617 26.6219L30.5463 26.6341C30.5468 26.6258 30.5472 26.619 30.5474 26.6164L30.3626 26.6065ZM30.3617 26.6219L30.1771 26.6097C30.1764 26.6217 30.1749 26.6412 30.1723 26.6681L30.3565 26.6851L30.5407 26.7022C30.5433 26.6729 30.5452 26.65 30.5463 26.6341L30.3617 26.6219ZM30.3565 26.6851L30.1723 26.6681C30.1673 26.7213 30.1584 26.8022 30.1425 26.9089L30.3254 26.9359L30.5084 26.963C30.5254 26.8492 30.535 26.7617 30.5407 26.7022L30.3565 26.6851ZM30.3254 26.9359L30.1425 26.9089C30.1105 27.1226 30.0508 27.4401 29.9398 27.8457L30.1183 27.894L30.2968 27.9423C30.4116 27.5221 30.4743 27.1904 30.5084 26.963L30.3254 26.9359ZM30.1183 27.894L29.9398 27.8457C29.718 28.6566 29.2911 29.8209 28.4719 31.214L28.6317 31.3069L28.7913 31.3996C29.6277 29.9772 30.0668 28.7828 30.2968 27.9423L30.1183 27.894ZM28.6317 31.3069L28.4719 31.214C27.6491 32.6132 27.1254 33.4368 26.828 34.1065L26.9972 34.1808L27.1664 34.2551C27.4525 33.6109 27.956 32.8202 28.7913 31.3996L28.6317 31.3069ZM26.9972 34.1808L26.828 34.1065C26.5173 34.8059 26.4447 35.3535 26.4928 36.2075L26.6775 36.1974L26.8622 36.1871C26.8165 35.3762 26.8847 34.8892 27.1664 34.2551L26.9972 34.1808ZM26.6775 36.1974L26.4928 36.2075C26.5927 37.9833 28.2606 39.9377 30.5478 39.9377V39.7537V39.5698C28.4749 39.5698 26.9521 37.7863 26.8622 36.1871L26.6775 36.1974ZM30.5478 39.7537V39.9377C32.8601 39.9375 34.24 37.9555 34.3384 36.2075L34.1536 36.1974L33.969 36.1871C33.8784 37.7956 32.6122 39.5696 30.5478 39.5698V39.7537ZM34.1536 36.1974L34.3384 36.2075C34.3863 35.3535 34.3138 34.8059 34.003 34.1065L33.834 34.1808L33.6647 34.2551C33.9464 34.8892 34.0145 35.3762 33.969 36.1871L34.1536 36.1974ZM33.834 34.1808L34.003 34.1065C33.7058 33.4368 33.1819 32.6132 32.3592 31.214L32.1996 31.3069L32.0399 31.3996C32.8751 32.8202 33.3786 33.6109 33.6647 34.2551L33.834 34.1808ZM32.1996 31.3069L32.3592 31.214C31.5411 29.8225 31.1345 28.6604 30.9325 27.8516L30.7529 27.896L30.5735 27.9403C30.7836 28.7815 31.2029 29.9767 32.0399 31.3996L32.1996 31.3069ZM30.7529 27.896L30.9325 27.8516C30.8315 27.4471 30.7816 27.1307 30.7568 26.9179L30.5731 26.939L30.3893 26.9601C30.4157 27.1878 30.4684 27.5198 30.5735 27.9403L30.7529 27.896ZM30.5731 26.939L30.7568 26.9179C30.7444 26.8116 30.7385 26.7311 30.7355 26.6783L30.5509 26.6886L30.3661 26.6988C30.3695 26.7584 30.3761 26.8462 30.3893 26.9601L30.5731 26.939ZM30.5509 26.6886L30.7355 26.6783C30.734 26.6521 30.7333 26.6328 30.7331 26.6204L30.5481 26.6255L30.3632 26.6305C30.3637 26.646 30.3645 26.6688 30.3661 26.6988L30.5509 26.6886ZM30.5481 26.6255L30.7331 26.6204C30.7329 26.6135 30.7327 26.6094 30.7327 26.6076L30.5478 26.61L30.3628 26.6125C30.3628 26.6172 30.363 26.6236 30.3632 26.6305L30.5481 26.6255ZM30.5478 26.61H30.7327V26.6057H30.5478H30.3628V26.61H30.5478ZM30.5478 26.6057L30.5517 26.4218L30.3667 26.418L30.3628 26.602L30.3591 26.7859L30.5441 26.7897L30.5478 26.6057ZM30.3628 26.602H30.1778V26.6027H30.3628H30.5478V26.602H30.3628Z" fill="white"/>
</g>
<path d="M10.5508 35.8441C10.5067 35.6933 10.4902 35.5459 10.5015 35.4015C10.5151 35.2586 10.5534 35.126 10.6162 35.0036C10.6815 34.8826 10.7689 34.7775 10.8785 34.6887C10.9882 34.5996 11.1168 34.5338 11.2646 34.4911C11.4124 34.4484 11.5565 34.4352 11.697 34.4519C11.8374 34.4685 11.9672 34.5115 12.0862 34.5814C12.2072 34.6506 12.311 34.7422 12.3977 34.8561C12.4864 34.9694 12.553 35.1024 12.5976 35.2549C12.645 35.417 12.6599 35.5732 12.6422 35.7233C12.6264 35.873 12.577 36.0099 12.4941 36.1341L12.2002 35.9615C12.2569 35.8675 12.2913 35.7707 12.3033 35.6712C12.3172 35.5711 12.3089 35.4692 12.2786 35.3657C12.2483 35.2621 12.2034 35.1718 12.144 35.095C12.0851 35.02 12.015 34.9597 11.9338 34.9137C11.8531 34.8695 11.7648 34.8419 11.6691 34.8309C11.5739 34.8215 11.4752 34.8318 11.3729 34.8614C11.2706 34.8908 11.1818 34.935 11.1065 34.9937C11.0317 35.054 10.9721 35.1245 10.9278 35.2047C10.884 35.2869 10.8575 35.3752 10.8482 35.47C10.8394 35.5664 10.8502 35.6664 10.8805 35.7702C10.9108 35.8738 10.9579 35.9645 11.0217 36.0419C11.0873 36.119 11.1704 36.1819 11.271 36.2305L11.1131 36.5336C10.9781 36.4726 10.8626 36.3833 10.7666 36.266C10.6707 36.1486 10.5987 36.0081 10.5508 35.8441ZM10.8583 36.7779L13.128 36.8749L13.2685 37.2248L11.6914 38.8527L11.5421 38.4809L12.979 37.0513L13.036 37.1935L11.0054 37.1442L10.8583 36.7779ZM11.4627 36.9974L11.7815 36.9818L12.1964 38.0151L11.9545 38.222L11.4627 36.9974ZM11.8828 39.2357L13.7154 38.2747L13.8949 38.6131L12.3502 39.4231L12.8554 40.3761L12.5674 40.5271L11.8828 39.2357ZM12.6628 40.6954L14.8977 40.29L15.1126 40.6001L13.9373 42.535L13.709 42.2054L14.7917 40.4947L14.879 40.6209L12.8879 41.0201L12.6628 40.6954ZM13.3011 40.7764L13.6085 40.6908L14.2432 41.6069L14.0534 41.8621L13.3011 40.7764ZM14.2676 42.903L15.7498 41.4635L15.9711 41.6888L15.5218 43.384L15.406 43.2661L17.1104 42.8491L17.3316 43.0744L15.8515 44.5161L15.5972 44.2571L16.6686 43.2124L16.7224 43.267L15.2889 43.6061L15.169 43.4839L15.5355 42.0582L15.5976 42.1215L14.524 43.164L14.2676 42.903ZM16.4648 45.0389L17.6458 43.3461L18.4434 43.8965C18.6476 44.0375 18.7751 44.1852 18.8259 44.3397C18.8777 44.4924 18.857 44.6357 18.7636 44.7696C18.7006 44.8598 18.6255 44.9227 18.5384 44.958C18.4524 44.9918 18.3614 45.002 18.2653 44.9882C18.172 44.9738 18.084 44.9383 18.0013 44.8811L18.1058 44.8243C18.2014 44.8903 18.275 44.9674 18.3264 45.0553C18.379 45.1418 18.4041 45.2332 18.4017 45.3294C18.401 45.4269 18.3663 45.5248 18.2977 45.6232C18.1965 45.7682 18.0618 45.8425 17.8937 45.846C17.7256 45.8493 17.5314 45.775 17.3109 45.6228L16.4648 45.0389ZM16.953 45.0104L17.4636 45.3627C17.5819 45.4444 17.6862 45.4876 17.7764 45.4926C17.8666 45.4976 17.9415 45.4573 18.0011 45.3719C18.0596 45.288 18.0708 45.2051 18.0345 45.1226C17.9994 45.0388 17.9227 44.956 17.8044 44.8743L17.2695 44.5051L17.4399 44.2608L17.9116 44.5864C18.0218 44.6626 18.1196 44.7014 18.205 44.7028C18.2919 44.7056 18.3624 44.6683 18.4164 44.5908C18.4715 44.5119 18.4826 44.4322 18.4496 44.3522C18.4182 44.2733 18.3475 44.1958 18.2372 44.1197L17.7898 43.811L16.953 45.0104ZM18.2768 46.2731L19.9882 44.7873L20.3325 44.9444L20.3184 47.2049L19.9526 47.0379L20.0025 45.0172L20.1424 45.0811L18.6373 46.4376L18.2768 46.2731ZM18.8668 46.0178L19.0869 45.7879L20.1036 46.2518L20.0719 46.5677L18.8668 46.0178ZM22.2023 47.6994L21.8757 45.5533L22.2695 45.6204L22.5567 47.5598L22.3612 47.5265L23.305 45.7971L23.655 45.8567L23.9481 47.7971L23.7585 47.7647L24.6935 46.0338L25.0552 46.0954L24.0283 48.0109L23.6258 47.9422L23.3542 46.1907L23.4592 46.2086L22.6078 47.7686L22.2023 47.6994ZM24.8752 48.1444L25.829 46.0938L26.2078 46.0976L27.1213 48.1676L26.7189 48.1635L25.9364 46.298L26.0903 46.2996L25.2717 48.1485L24.8752 48.1444ZM25.3093 47.672L25.416 47.3729L26.5347 47.3845L26.6351 47.6858L25.3093 47.672ZM27.8696 48.0924L27.695 46.3646L27.0118 46.4328L26.9792 46.1107L28.7284 45.9358L28.761 46.2579L28.0778 46.3263L28.2524 48.0541L27.8696 48.0924ZM29.4 47.8979L28.9433 45.8881L30.4185 45.5566L30.4897 45.8695L29.3899 46.1168L29.7041 47.5005L30.8445 47.2443L30.9155 47.5572L29.4 47.8979ZM29.5495 46.9529L29.4796 46.6459L30.4843 46.4199L30.5541 46.7272L29.5495 46.9529ZM31.5348 47.3594L30.762 45.4477L31.5501 45.1326C31.8065 45.0301 32.0313 45.0101 32.2244 45.0724C32.4193 45.1341 32.5599 45.2713 32.6461 45.4843C32.7027 45.6245 32.7188 45.7588 32.694 45.887C32.6687 46.0136 32.6056 46.1286 32.505 46.2323C32.4056 46.3335 32.2708 46.4179 32.1004 46.486L31.5074 46.7233L31.6014 46.4985L31.8918 47.2167L31.5348 47.3594ZM32.7924 46.8565L32.0261 46.3572L32.4077 46.2045L33.177 46.7029L32.7924 46.8565ZM31.6169 46.5366L31.3892 46.431L31.9658 46.2005C32.1234 46.1376 32.2277 46.0566 32.2793 45.9578C32.3326 45.8581 32.335 45.7483 32.2863 45.6282C32.2369 45.5062 32.1589 45.4286 32.0518 45.3953C31.9465 45.3611 31.8152 45.3756 31.6578 45.4385L31.0812 45.669L31.1698 45.4306L31.6169 46.5366ZM34.5668 45.9102L33.3101 44.2722L34.0302 43.7258C34.2089 43.5901 34.3922 43.5054 34.5798 43.4718C34.7673 43.4379 34.9453 43.4534 35.114 43.5179C35.2827 43.5825 35.4305 43.6975 35.5574 43.8629C35.683 44.0266 35.7555 44.1988 35.7747 44.3791C35.7926 44.5579 35.7606 44.7328 35.6783 44.9039C35.5962 45.0748 35.4656 45.2282 35.2867 45.3638L34.5668 45.9102ZM34.6752 45.4207L35.0751 45.1171C35.1976 45.0244 35.2862 44.9201 35.3413 44.8042C35.3964 44.6883 35.4159 44.5698 35.3999 44.4488C35.3855 44.3265 35.3352 44.2091 35.249 44.0967C35.1617 43.9828 35.0613 43.9035 34.9475 43.859C34.8343 43.8117 34.7143 43.799 34.5874 43.8213C34.4605 43.8436 34.3358 43.9011 34.2135 43.994L33.8134 44.2974L34.6752 45.4207ZM36.6442 44.2652L35.1501 42.838L35.4164 42.5621L36.9106 43.9893L36.6442 44.2652ZM37.8051 42.9471C37.7069 43.075 37.5948 43.1837 37.4688 43.2733C37.3414 43.3616 37.2225 43.4181 37.1117 43.4425L36.955 43.1568C37.0571 43.1307 37.1625 43.0823 37.2713 43.0119C37.3801 42.9414 37.4733 42.8555 37.5512 42.7541C37.617 42.6684 37.6608 42.5919 37.6829 42.5245C37.7047 42.4572 37.7097 42.3991 37.6975 42.3503C37.6836 42.3005 37.6564 42.26 37.6157 42.2289C37.5654 42.1908 37.5118 42.1783 37.4544 42.1916C37.3954 42.2037 37.3353 42.232 37.2737 42.2766C37.2117 42.3183 37.1461 42.3684 37.0763 42.4267C37.0081 42.4833 36.9367 42.5391 36.8623 42.5937C36.7878 42.6456 36.7118 42.6879 36.6346 42.7207C36.5569 42.7506 36.4761 42.762 36.3921 42.7551C36.3082 42.7479 36.2223 42.7111 36.1345 42.6443C36.0451 42.5764 35.9815 42.4911 35.9438 42.3884C35.9057 42.2828 35.9018 42.1651 35.9321 42.035C35.9623 41.9022 36.0348 41.7611 36.1496 41.6114C36.2251 41.5131 36.3126 41.4252 36.4119 41.3476C36.5113 41.2699 36.6121 41.2133 36.7142 41.1772L36.8781 41.4535C36.7778 41.4934 36.6875 41.5448 36.6073 41.6071C36.5255 41.6684 36.4571 41.735 36.4019 41.8067C36.3372 41.8908 36.2947 41.9671 36.2743 42.0358C36.2553 42.1027 36.2525 42.161 36.2662 42.2111C36.2812 42.2595 36.3098 42.2997 36.3522 42.3319C36.4023 42.37 36.4563 42.3838 36.514 42.3735C36.5714 42.3603 36.6302 42.3321 36.6905 42.2891C36.7521 42.2444 36.8185 42.1936 36.8895 42.1366C36.9593 42.0783 37.0305 42.0227 37.1035 41.9695C37.1779 41.9149 37.253 41.872 37.3292 41.8408C37.4063 41.8082 37.4864 41.7961 37.5691 41.8047C37.6531 41.8117 37.7384 41.8479 37.8246 41.9136C37.9122 41.9802 37.9753 42.0663 38.0134 42.1719C38.0511 42.2747 38.055 42.3925 38.0251 42.5253C37.9934 42.6568 37.9202 42.7974 37.8051 42.9471ZM38.7927 41.4451L37.2761 40.5845L36.9358 41.1778L36.6531 41.0172L37.5242 39.4986L37.807 39.659L37.4666 40.2522L38.9834 41.1126L38.7927 41.4451ZM39.522 40.0824L37.6033 39.3054L37.9235 38.523C38.0278 38.2686 38.1695 38.094 38.3489 37.9993C38.5291 37.9027 38.7261 37.8977 38.9397 37.9844C39.0805 38.0414 39.1887 38.1233 39.2642 38.2301C39.338 38.3363 39.3772 38.4612 39.3822 38.6052C39.3861 38.7467 39.3535 38.9018 39.2842 39.0708L39.0431 39.6597L38.9462 39.4362L39.667 39.728L39.522 40.0824ZM40.0331 38.8339L39.1393 39.0344L39.2945 38.6555L40.1894 38.4522L40.0331 38.8339ZM38.9845 39.4516L38.75 39.5409L38.9843 38.9684C39.0483 38.8122 39.0624 38.6812 39.0269 38.5758C38.9919 38.4684 38.9142 38.3904 38.7936 38.3414C38.6712 38.2919 38.5607 38.2938 38.4621 38.3471C38.3645 38.3986 38.2835 38.5024 38.2195 38.6588L37.9851 39.2313L37.8745 39.002L38.9845 39.4516ZM40.3677 37.9354L38.3841 37.3412L38.4951 36.9748L40.4787 37.569L40.3677 37.9354ZM40.8888 35.9694C40.8553 36.1228 40.7991 36.2603 40.7201 36.3819C40.6396 36.5009 40.5423 36.5995 40.4286 36.6773C40.3132 36.7527 40.1859 36.8037 40.047 36.8298C39.9081 36.8561 39.7632 36.853 39.6129 36.8204C39.4625 36.7881 39.3295 36.7312 39.2141 36.6501C39.0984 36.569 39.005 36.4694 38.9338 36.3517C38.8608 36.2334 38.8134 36.1037 38.7916 35.9626C38.7681 35.821 38.7733 35.6725 38.8071 35.5171C38.843 35.3522 38.9048 35.208 38.9925 35.0842C39.0779 34.9602 39.187 34.8633 39.3193 34.7934L39.495 35.0844C39.4001 35.1401 39.3236 35.2089 39.2653 35.2908C39.2052 35.3721 39.1636 35.4655 39.1406 35.571C39.1175 35.6766 39.1138 35.777 39.1291 35.8728C39.1451 35.9665 39.1778 36.0529 39.2272 36.1319C39.2769 36.2089 39.3413 36.275 39.4201 36.3302C39.4993 36.3833 39.591 36.4212 39.6952 36.4437C39.7993 36.4661 39.8984 36.4694 39.9928 36.4538C40.0875 36.4359 40.1735 36.4023 40.251 36.3528C40.3289 36.3013 40.3945 36.2362 40.448 36.1574C40.502 36.0767 40.5405 35.9836 40.5636 35.8782C40.5865 35.7726 40.5886 35.6707 40.5697 35.5722C40.5488 35.4735 40.5059 35.3787 40.4408 35.2884L40.7249 35.0967C40.8144 35.2144 40.8731 35.3476 40.9012 35.4963C40.9293 35.6449 40.9252 35.8026 40.8888 35.9694ZM41.1448 34.2941L39.4094 34.1026L39.3337 34.7814L39.01 34.7455L39.2039 33.0078L39.5276 33.0437L39.4517 33.7223L41.1873 33.9138L41.1448 34.2941Z" fill="#2225CF"/>
</g>
<path d="M57.688 26.16C56.8347 26.16 56.04 26.0213 55.304 25.744C54.5787 25.456 53.944 25.056 53.4 24.544C52.8667 24.0213 52.4507 23.408 52.152 22.704C51.8533 22 51.704 21.232 51.704 20.4C51.704 19.568 51.8533 18.8 52.152 18.096C52.4507 17.392 52.872 16.784 53.416 16.272C53.96 15.7493 54.5947 15.3493 55.32 15.072C56.0453 14.784 56.84 14.64 57.704 14.64C58.6213 14.64 59.4587 14.8 60.216 15.12C60.9733 15.4293 61.6133 15.8933 62.136 16.512L60.792 17.776C60.3867 17.3387 59.9333 17.0133 59.432 16.8C58.9307 16.576 58.3867 16.464 57.8 16.464C57.2133 16.464 56.6747 16.56 56.184 16.752C55.704 16.944 55.2827 17.216 54.92 17.568C54.568 17.92 54.2907 18.336 54.088 18.816C53.896 19.296 53.8 19.824 53.8 20.4C53.8 20.976 53.896 21.504 54.088 21.984C54.2907 22.464 54.568 22.88 54.92 23.232C55.2827 23.584 55.704 23.856 56.184 24.048C56.6747 24.24 57.2133 24.336 57.8 24.336C58.3867 24.336 58.9307 24.2293 59.432 24.016C59.9333 23.792 60.3867 23.456 60.792 23.008L62.136 24.288C61.6133 24.896 60.9733 25.36 60.216 25.68C59.4587 26 58.616 26.16 57.688 26.16ZM62.49 26L67.53 14.8H69.578L74.634 26H72.458L68.122 15.904H68.954L64.634 26H62.49ZM64.81 23.408L65.37 21.776H71.418L71.978 23.408H64.81ZM76.3784 26V14.8H78.4584V24.24H84.3144V26H76.3784ZM84.7081 26L89.7481 14.8H91.7961L96.8521 26H94.6761L90.3401 15.904H91.1721L86.8521 26H84.7081ZM87.0281 23.408L87.5881 21.776H93.6361L94.1961 23.408H87.0281ZM98.5965 26V14.8H100.308L105.204 22.976H104.308L109.124 14.8H110.836L110.852 26H108.884L108.868 17.888H109.284L105.188 24.72H104.26L100.1 17.888H100.58V26H98.5965ZM114.198 26V14.8H119.446C120.79 14.8 121.814 15.0667 122.518 15.6C123.222 16.1227 123.574 16.8267 123.574 17.712C123.574 18.3093 123.435 18.8213 123.158 19.248C122.88 19.664 122.507 19.9893 122.038 20.224C121.579 20.448 121.078 20.56 120.534 20.56L120.822 19.984C121.451 19.984 122.016 20.1013 122.518 20.336C123.019 20.56 123.414 20.8907 123.702 21.328C124 21.7653 124.15 22.3093 124.15 22.96C124.15 23.92 123.782 24.6667 123.046 25.2C122.31 25.7333 121.216 26 119.766 26H114.198ZM116.278 24.368H119.638C120.416 24.368 121.014 24.24 121.43 23.984C121.846 23.728 122.054 23.3173 122.054 22.752C122.054 22.1973 121.846 21.792 121.43 21.536C121.014 21.2693 120.416 21.136 119.638 21.136H116.118V19.52H119.222C119.947 19.52 120.502 19.392 120.886 19.136C121.28 18.88 121.478 18.496 121.478 17.984C121.478 17.4613 121.28 17.072 120.886 16.816C120.502 16.56 119.947 16.432 119.222 16.432H116.278V24.368ZM125.106 26L130.146 14.8H132.194L137.25 26H135.074L130.738 15.904H131.57L127.25 26H125.106ZM127.426 23.408L127.986 21.776H134.034L134.594 23.408H127.426ZM146.376 26L142.664 14.8H144.824L148.136 24.928H147.064L150.504 14.8H152.424L155.768 24.928H154.728L158.12 14.8H160.104L156.392 26H154.184L151.128 16.864H151.704L148.6 26H146.376ZM160.175 26L165.215 14.8H167.263L172.319 26H170.143L165.807 15.904H166.639L162.319 26H160.175ZM162.495 23.408L163.055 21.776H169.103L169.663 23.408H162.495ZM175.773 26V16.56H172.061V14.8H181.565V16.56H177.853V26H175.773ZM183.446 26V14.8H191.622V16.544H185.526V24.256H191.846V26H183.446ZM185.366 21.168V19.456H190.934V21.168H185.366ZM194.485 26V14.8H199.077C200.57 14.8 201.738 15.152 202.581 15.856C203.434 16.56 203.861 17.536 203.861 18.784C203.861 19.6053 203.669 20.3147 203.285 20.912C202.901 21.4987 202.351 21.952 201.637 22.272C200.933 22.5813 200.085 22.736 199.093 22.736H195.637L196.565 21.792V26H194.485ZM201.813 26L198.981 21.936H201.205L204.053 26H201.813ZM196.565 22.016L195.637 21.024H198.997C199.914 21.024 200.602 20.8267 201.061 20.432C201.53 20.0373 201.765 19.488 201.765 18.784C201.765 18.0693 201.53 17.52 201.061 17.136C200.602 16.752 199.914 16.56 198.997 16.56H195.637L196.565 15.536V22.016ZM52.504 46V34.8H57.4C58.616 34.8 59.6827 35.0347 60.6 35.504C61.5173 35.9733 62.232 36.624 62.744 37.456C63.256 38.288 63.512 39.2693 63.512 40.4C63.512 41.52 63.256 42.5013 62.744 43.344C62.232 44.176 61.5173 44.8267 60.6 45.296C59.6827 45.7653 58.616 46 57.4 46H52.504ZM54.584 44.24H57.304C58.136 44.24 58.8613 44.08 59.48 43.76C60.0987 43.44 60.5733 42.992 60.904 42.416C61.2453 41.84 61.416 41.168 61.416 40.4C61.416 39.6213 61.2453 38.9493 60.904 38.384C60.5733 37.808 60.0987 37.36 59.48 37.04C58.8613 36.72 58.136 36.56 57.304 36.56H54.584V44.24ZM66.0427 46V34.8H68.1227V46H66.0427ZM74.9441 46.16C74.0695 46.16 73.2321 46.0373 72.4321 45.792C71.6321 45.536 70.9975 45.2107 70.5281 44.816L71.2481 43.2C71.6961 43.552 72.2508 43.8453 72.9121 44.08C73.5735 44.3147 74.2508 44.432 74.9441 44.432C75.5308 44.432 76.0055 44.368 76.3681 44.24C76.7308 44.112 76.9975 43.9413 77.1681 43.728C77.3388 43.504 77.4241 43.2533 77.4241 42.976C77.4241 42.6347 77.3015 42.3627 77.0561 42.16C76.8108 41.9467 76.4908 41.7813 76.0961 41.664C75.7121 41.536 75.2801 41.4187 74.8001 41.312C74.3308 41.2053 73.8561 41.0827 73.3761 40.944C72.9068 40.7947 72.4748 40.608 72.0801 40.384C71.6961 40.1493 71.3815 39.84 71.1361 39.456C70.8908 39.072 70.7681 38.5813 70.7681 37.984C70.7681 37.376 70.9281 36.8213 71.2481 36.32C71.5788 35.808 72.0748 35.4027 72.7361 35.104C73.4081 34.7947 74.2561 34.64 75.2801 34.64C75.9521 34.64 76.6188 34.7253 77.2801 34.896C77.9415 35.0667 78.5175 35.312 79.0081 35.632L78.3521 37.248C77.8508 36.9493 77.3335 36.7307 76.8001 36.592C76.2668 36.4427 75.7548 36.368 75.2641 36.368C74.6881 36.368 74.2188 36.4373 73.8561 36.576C73.5041 36.7147 73.2428 36.896 73.0721 37.12C72.9121 37.344 72.8321 37.6 72.8321 37.888C72.8321 38.2293 72.9495 38.5067 73.1841 38.72C73.4295 38.9227 73.7441 39.0827 74.1281 39.2C74.5228 39.3173 74.9601 39.4347 75.4401 39.552C75.9201 39.6587 76.3948 39.7813 76.8641 39.92C77.3441 40.0587 77.7761 40.24 78.1601 40.464C78.5548 40.688 78.8695 40.992 79.1041 41.376C79.3495 41.76 79.4721 42.2453 79.4721 42.832C79.4721 43.4293 79.3068 43.984 78.9761 44.496C78.6561 44.9973 78.1601 45.4027 77.4881 45.712C76.8161 46.0107 75.9681 46.16 74.9441 46.16ZM83.9704 46V36.56H80.2584V34.8H89.7624V36.56H86.0504V46H83.9704ZM91.6434 46V34.8H96.2354C97.7287 34.8 98.8967 35.152 99.7394 35.856C100.593 36.56 101.019 37.536 101.019 38.784C101.019 39.6053 100.827 40.3147 100.443 40.912C100.059 41.4987 99.51 41.952 98.7954 42.272C98.0914 42.5813 97.2434 42.736 96.2514 42.736H92.7954L93.7234 41.792V46H91.6434ZM98.9714 46L96.1394 41.936H98.3634L101.211 46H98.9714ZM93.7234 42.016L92.7954 41.024H96.1554C97.0727 41.024 97.7607 40.8267 98.2194 40.432C98.6887 40.0373 98.9234 39.488 98.9234 38.784C98.9234 38.0693 98.6887 37.52 98.2194 37.136C97.7607 36.752 97.0727 36.56 96.1554 36.56H92.7954L93.7234 35.536V42.016ZM103.666 46V34.8H105.746V46H103.666ZM114.28 46.16C113.427 46.16 112.632 46.0213 111.896 45.744C111.171 45.456 110.536 45.056 109.992 44.544C109.459 44.0213 109.043 43.408 108.744 42.704C108.445 42 108.296 41.232 108.296 40.4C108.296 39.568 108.445 38.8 108.744 38.096C109.043 37.392 109.464 36.784 110.008 36.272C110.552 35.7493 111.187 35.3493 111.912 35.072C112.637 34.784 113.432 34.64 114.296 34.64C115.213 34.64 116.051 34.8 116.808 35.12C117.565 35.4293 118.205 35.8933 118.728 36.512L117.384 37.776C116.979 37.3387 116.525 37.0133 116.024 36.8C115.523 36.576 114.979 36.464 114.392 36.464C113.805 36.464 113.267 36.56 112.776 36.752C112.296 36.944 111.875 37.216 111.512 37.568C111.16 37.92 110.883 38.336 110.68 38.816C110.488 39.296 110.392 39.824 110.392 40.4C110.392 40.976 110.488 41.504 110.68 41.984C110.883 42.464 111.16 42.88 111.512 43.232C111.875 43.584 112.296 43.856 112.776 44.048C113.267 44.24 113.805 44.336 114.392 44.336C114.979 44.336 115.523 44.2293 116.024 44.016C116.525 43.792 116.979 43.456 117.384 43.008L118.728 44.288C118.205 44.896 117.565 45.36 116.808 45.68C116.051 46 115.208 46.16 114.28 46.16ZM122.922 46V36.56H119.21V34.8H128.714V36.56H125.002V46H122.922Z" fill="#2E3092"/>
<defs>
<clipPath id="clip0_1857_7854">
<rect width="32" height="39" fill="white" transform="translate(10 10)"/>
</clipPath>
</defs>
</svg>
