<svg width="175" height="40" viewBox="0 0 175 40" fill="none" xmlns="http://www.w3.org/2000/svg">
<g clip-path="url(#clip0_2359_9632)">
<path d="M171 0.5H4C2.067 0.5 0.5 2.067 0.5 4V36C0.5 37.933 2.067 39.5 4 39.5H171C172.933 39.5 174.5 37.933 174.5 36V4C174.5 2.067 172.933 0.5 171 0.5Z" fill="white"/>
<mask id="mask0_2359_9632" style="mask-type:luminance" maskUnits="userSpaceOnUse" x="12" y="10" width="20" height="20">
<path d="M32 10H12V30H32V10Z" fill="white"/>
</mask>
<g mask="url(#mask0_2359_9632)">
<path d="M31.6 20.2291C31.6 19.52 31.5364 18.8382 31.4182 18.1836H22V22.0518H27.3818C27.15 23.3018 26.4455 24.3609 25.3864 25.07V27.5791H28.6182C30.5091 25.8382 31.6 23.2745 31.6 20.2291Z" fill="#4285F4"/>
<path d="M22.0009 29.9984C24.7009 29.9984 26.9645 29.1029 28.619 27.5757L25.3872 25.0666C24.4918 25.6666 23.3463 26.0211 22.0009 26.0211C19.3963 26.0211 17.1918 24.262 16.4054 21.8984H13.0645V24.4893C14.71 27.7575 18.0918 29.9984 22.0009 29.9984Z" fill="#34A853"/>
<path d="M16.4045 21.8987C16.2045 21.2987 16.0909 20.6578 16.0909 19.9987C16.0909 19.3396 16.2045 18.6987 16.4045 18.0987V15.5078H13.0636C12.3864 16.8578 12 18.3851 12 19.9987C12 21.6123 12.3864 23.1396 13.0636 24.4896L16.4045 21.8987Z" fill="#FBBC04"/>
<path d="M22.0009 13.9773C23.469 13.9773 24.7872 14.4818 25.8236 15.4727L28.6918 12.6045C26.96 10.9909 24.6963 10 22.0009 10C18.0918 10 14.71 12.2409 13.0645 15.5091L16.4054 18.1C17.1918 15.7364 19.3963 13.9773 22.0009 13.9773Z" fill="#E94235"/>
</g>
<path d="M48.249 22.4365C48.249 22.2314 48.2171 22.0492 48.1533 21.8896C48.0941 21.7301 47.987 21.5843 47.8321 21.4521C47.6771 21.32 47.4584 21.1924 47.1758 21.0693C46.8978 20.9417 46.5423 20.8118 46.1094 20.6797C45.6354 20.5339 45.1979 20.3721 44.7969 20.1943C44.4004 20.012 44.0541 19.8024 43.7578 19.5654C43.4616 19.3239 43.2315 19.0482 43.0674 18.7383C42.9033 18.4238 42.8213 18.0615 42.8213 17.6514C42.8213 17.2458 42.9056 16.8766 43.0742 16.5439C43.2474 16.2113 43.4912 15.9242 43.8057 15.6826C44.1247 15.4365 44.5007 15.2474 44.9336 15.1152C45.3666 14.9785 45.8451 14.9102 46.3692 14.9102C47.1074 14.9102 47.7432 15.0469 48.2764 15.3203C48.8142 15.5938 49.2266 15.9606 49.5137 16.4209C49.8054 16.8812 49.9512 17.3893 49.9512 17.9453H48.249C48.249 17.6172 48.1784 17.3278 48.0371 17.0771C47.9004 16.8219 47.6908 16.6214 47.4082 16.4756C47.1302 16.3298 46.777 16.2568 46.3487 16.2568C45.9431 16.2568 45.6058 16.3184 45.3369 16.4414C45.0681 16.5645 44.8675 16.7308 44.7354 16.9404C44.6032 17.1501 44.5371 17.387 44.5371 17.6514C44.5371 17.8382 44.5804 18.0091 44.667 18.1641C44.7536 18.3145 44.8858 18.4557 45.0635 18.5879C45.2412 18.7155 45.4645 18.8363 45.7334 18.9502C46.0023 19.0641 46.319 19.1735 46.6836 19.2783C47.235 19.4424 47.7158 19.6247 48.126 19.8252C48.5362 20.0212 48.878 20.2445 49.1514 20.4951C49.4248 20.7458 49.6299 21.0306 49.7666 21.3496C49.9033 21.6641 49.9717 22.0218 49.9717 22.4229C49.9717 22.8421 49.8874 23.2204 49.7188 23.5576C49.5502 23.8903 49.3086 24.1751 48.9942 24.4121C48.6843 24.6445 48.3106 24.8245 47.8731 24.9521C47.4401 25.0752 46.9571 25.1367 46.4239 25.1367C45.9453 25.1367 45.4737 25.0729 45.0088 24.9453C44.5485 24.8177 44.1293 24.624 43.751 24.3643C43.3727 24.0999 43.072 23.7718 42.8487 23.3799C42.6253 22.9834 42.5137 22.5208 42.5137 21.9922H44.2295C44.2295 22.3158 44.2842 22.5915 44.3936 22.8193C44.5075 23.0472 44.6647 23.234 44.8653 23.3799C45.0658 23.5212 45.2982 23.626 45.5625 23.6943C45.8314 23.7627 46.1185 23.7969 46.4239 23.7969C46.8249 23.7969 47.1599 23.7399 47.4287 23.626C47.7022 23.512 47.9072 23.3525 48.044 23.1475C48.1807 22.9424 48.249 22.7054 48.249 22.4365ZM53.0889 17.6035V25H51.4346V17.6035H53.0889ZM51.3252 15.6621C51.3252 15.4115 51.4072 15.2041 51.5713 15.04C51.7399 14.8714 51.9724 14.7871 52.2686 14.7871C52.5602 14.7871 52.7904 14.8714 52.959 15.04C53.1276 15.2041 53.2119 15.4115 53.2119 15.6621C53.2119 15.9082 53.1276 16.1133 52.959 16.2773C52.7904 16.4414 52.5602 16.5234 52.2686 16.5234C51.9724 16.5234 51.7399 16.4414 51.5713 16.2773C51.4072 16.1133 51.3252 15.9082 51.3252 15.6621ZM59.6309 17.6035H61.128V24.7949C61.128 25.4603 60.9867 26.0254 60.7041 26.4902C60.4216 26.9551 60.0274 27.3083 59.5215 27.5498C59.0156 27.7959 58.43 27.9189 57.7647 27.9189C57.4821 27.9189 57.1677 27.8779 56.8213 27.7959C56.4795 27.7139 56.1468 27.5817 55.8233 27.3994C55.5043 27.2217 55.2377 26.987 55.0235 26.6953L55.7959 25.7246C56.0602 26.0391 56.3519 26.2692 56.6709 26.415C56.9899 26.5609 57.3249 26.6338 57.6758 26.6338C58.0541 26.6338 58.3753 26.5632 58.6397 26.4219C58.9086 26.2852 59.1159 26.0824 59.2617 25.8135C59.4076 25.5446 59.4805 25.2165 59.4805 24.8291V19.2783L59.6309 17.6035ZM54.6065 21.3838V21.2402C54.6065 20.6797 54.6748 20.1693 54.8115 19.709C54.9483 19.2441 55.1442 18.8454 55.3994 18.5127C55.6546 18.1755 55.9645 17.918 56.3291 17.7402C56.6937 17.5579 57.1061 17.4668 57.5664 17.4668C58.0449 17.4668 58.4528 17.5534 58.7901 17.7266C59.1319 17.8997 59.4167 18.1481 59.6446 18.4717C59.8724 18.7907 60.0502 19.1735 60.1778 19.6201C60.3099 20.0622 60.4079 20.5544 60.4717 21.0967V21.5547C60.4125 22.0833 60.3122 22.5664 60.1709 23.0039C60.0296 23.4414 59.8428 23.8197 59.6104 24.1387C59.378 24.4577 59.0908 24.7038 58.749 24.877C58.4118 25.0501 58.013 25.1367 57.5528 25.1367C57.1016 25.1367 56.6937 25.0433 56.3291 24.8564C55.9691 24.6696 55.6592 24.4076 55.3994 24.0703C55.1442 23.7331 54.9483 23.3366 54.8115 22.8809C54.6748 22.4206 54.6065 21.9215 54.6065 21.3838ZM56.2539 21.2402V21.3838C56.2539 21.721 56.2858 22.0355 56.3496 22.3271C56.418 22.6188 56.5205 22.8763 56.6572 23.0996C56.7985 23.3184 56.9763 23.4915 57.1905 23.6191C57.4092 23.7422 57.6667 23.8037 57.9629 23.8037C58.3503 23.8037 58.667 23.7217 58.9131 23.5576C59.1638 23.3936 59.3552 23.1725 59.4873 22.8945C59.624 22.612 59.7198 22.2975 59.7744 21.9512V20.7139C59.7471 20.445 59.6901 20.1943 59.6035 19.9619C59.5215 19.7295 59.4099 19.5267 59.2686 19.3535C59.1273 19.1758 58.9496 19.0391 58.7354 18.9434C58.5212 18.8431 58.2683 18.793 57.9766 18.793C57.6804 18.793 57.4229 18.8568 57.2041 18.9844C56.9854 19.112 56.8054 19.2874 56.6641 19.5107C56.5274 19.734 56.4248 19.9938 56.3565 20.29C56.2881 20.5863 56.2539 20.903 56.2539 21.2402ZM64.4707 19.1826V25H62.8233V17.6035H64.375L64.4707 19.1826ZM64.1768 21.0283L63.6436 21.0215C63.6481 20.4974 63.7211 20.0166 63.8623 19.5791C64.0082 19.1416 64.2087 18.7656 64.4639 18.4512C64.7237 18.1367 65.0336 17.8952 65.3936 17.7266C65.7536 17.5534 66.1546 17.4668 66.5967 17.4668C66.9522 17.4668 67.2735 17.5169 67.5606 17.6172C67.8522 17.7129 68.1006 17.8701 68.3057 18.0889C68.5153 18.3076 68.6748 18.5924 68.7842 18.9434C68.8936 19.2897 68.9483 19.7158 68.9483 20.2217V25H67.294V20.2148C67.294 19.8594 67.2416 19.5791 67.1367 19.374C67.0365 19.1644 66.8884 19.0163 66.6924 18.9297C66.501 18.8385 66.2617 18.793 65.9746 18.793C65.6921 18.793 65.4392 18.8522 65.2158 18.9707C64.9925 19.0892 64.8034 19.251 64.6485 19.4561C64.4981 19.6611 64.3819 19.8981 64.2998 20.167C64.2178 20.4359 64.1768 20.723 64.1768 21.0283ZM75.8799 17.6035V25H74.2256V17.6035H75.8799ZM74.1162 15.6621C74.1162 15.4115 74.1983 15.2041 74.3623 15.04C74.5309 14.8714 74.7634 14.7871 75.0596 14.7871C75.3513 14.7871 75.5814 14.8714 75.75 15.04C75.9186 15.2041 76.003 15.4115 76.003 15.6621C76.003 15.9082 75.9186 16.1133 75.75 16.2773C75.5814 16.4414 75.3513 16.5234 75.0596 16.5234C74.7634 16.5234 74.5309 16.4414 74.3623 16.2773C74.1983 16.1133 74.1162 15.9082 74.1162 15.6621ZM79.3184 19.1826V25H77.6709V17.6035H79.2227L79.3184 19.1826ZM79.0244 21.0283L78.4912 21.0215C78.4958 20.4974 78.5687 20.0166 78.71 19.5791C78.8558 19.1416 79.0563 18.7656 79.3115 18.4512C79.5713 18.1367 79.8812 17.8952 80.2412 17.7266C80.6013 17.5534 81.0023 17.4668 81.4444 17.4668C81.7998 17.4668 82.1211 17.5169 82.4082 17.6172C82.6999 17.7129 82.9483 17.8701 83.1533 18.0889C83.363 18.3076 83.5225 18.5924 83.6319 18.9434C83.7412 19.2897 83.7959 19.7158 83.7959 20.2217V25H82.1416V20.2148C82.1416 19.8594 82.0892 19.5791 81.9844 19.374C81.8841 19.1644 81.736 19.0163 81.5401 18.9297C81.3487 18.8385 81.1094 18.793 80.8223 18.793C80.5397 18.793 80.2868 18.8522 80.0635 18.9707C79.8402 19.0892 79.6511 19.251 79.4961 19.4561C79.3457 19.6611 79.2295 19.8981 79.1475 20.167C79.0655 20.4359 79.0244 20.723 79.0244 21.0283ZM90.9737 23.3594L92.6826 17.6035H93.7354L93.4483 19.3262L91.7256 25H90.7822L90.9737 23.3594ZM89.9688 17.6035L91.3018 23.3867L91.4112 25H90.3584L88.3555 17.6035H89.9688ZM95.335 23.3184L96.627 17.6035H98.2334L96.2373 25H95.1846L95.335 23.3184ZM93.9131 17.6035L95.6016 23.291L95.8135 25H94.8701L93.127 19.3193L92.8399 17.6035H93.9131ZM101.118 17.6035V25H99.4639V17.6035H101.118ZM99.3545 15.6621C99.3545 15.4115 99.4365 15.2041 99.6006 15.04C99.7692 14.8714 100.002 14.7871 100.298 14.7871C100.59 14.7871 100.82 14.8714 100.988 15.04C101.157 15.2041 101.241 15.4115 101.241 15.6621C101.241 15.9082 101.157 16.1133 100.988 16.2773C100.82 16.4414 100.59 16.5234 100.298 16.5234C100.002 16.5234 99.7692 16.4414 99.6006 16.2773C99.4365 16.1133 99.3545 15.9082 99.3545 15.6621ZM106.313 17.6035V18.8066H102.144V17.6035H106.313ZM103.347 15.792H104.994V22.9561C104.994 23.1839 105.026 23.3594 105.09 23.4824C105.158 23.6009 105.252 23.6807 105.37 23.7217C105.489 23.7627 105.628 23.7832 105.787 23.7832C105.901 23.7832 106.01 23.7764 106.115 23.7627C106.22 23.749 106.304 23.7354 106.368 23.7217L106.375 24.9795C106.238 25.0205 106.079 25.057 105.897 25.0889C105.719 25.1208 105.514 25.1367 105.281 25.1367C104.903 25.1367 104.568 25.0706 104.276 24.9385C103.985 24.8018 103.757 24.5807 103.593 24.2754C103.429 23.9701 103.347 23.5645 103.347 23.0586V15.792ZM109.212 14.5V25H107.571V14.5H109.212ZM108.925 21.0283L108.392 21.0215C108.396 20.5111 108.467 20.0394 108.604 19.6064C108.745 19.1735 108.941 18.7975 109.191 18.4785C109.447 18.1549 109.752 17.9066 110.107 17.7334C110.463 17.5557 110.857 17.4668 111.29 17.4668C111.655 17.4668 111.983 17.5169 112.274 17.6172C112.571 17.7174 112.826 17.8792 113.04 18.1025C113.254 18.3213 113.416 18.6084 113.525 18.9639C113.639 19.3148 113.696 19.7432 113.696 20.249V25H112.042V20.2354C112.042 19.8799 111.99 19.5973 111.885 19.3877C111.785 19.1781 111.636 19.0277 111.44 18.9365C111.244 18.8408 111.005 18.793 110.723 18.793C110.426 18.793 110.164 18.8522 109.937 18.9707C109.713 19.0892 109.526 19.251 109.376 19.4561C109.226 19.6611 109.112 19.8981 109.034 20.167C108.961 20.4359 108.925 20.723 108.925 21.0283ZM126.657 19.9141V23.7148C126.516 23.9017 126.295 24.1068 125.994 24.3301C125.698 24.5488 125.304 24.738 124.812 24.8975C124.319 25.057 123.706 25.1367 122.973 25.1367C122.348 25.1367 121.776 25.0319 121.257 24.8223C120.737 24.6081 120.288 24.2959 119.91 23.8857C119.536 23.4756 119.247 22.9766 119.042 22.3887C118.837 21.7962 118.734 21.1217 118.734 20.3652V19.6748C118.734 18.9229 118.828 18.2529 119.015 17.665C119.206 17.0726 119.48 16.5713 119.835 16.1611C120.19 15.751 120.619 15.4411 121.12 15.2314C121.626 15.0173 122.198 14.9102 122.836 14.9102C123.652 14.9102 124.326 15.0469 124.859 15.3203C125.397 15.5892 125.812 15.9629 126.104 16.4414C126.395 16.9199 126.58 17.4668 126.657 18.082H124.976C124.921 17.7357 124.814 17.4258 124.654 17.1523C124.499 16.8789 124.276 16.6647 123.984 16.5098C123.697 16.3503 123.324 16.2705 122.863 16.2705C122.467 16.2705 122.118 16.3457 121.817 16.4961C121.517 16.6465 121.266 16.8675 121.065 17.1592C120.869 17.4508 120.721 17.8063 120.621 18.2256C120.521 18.6449 120.471 19.1234 120.471 19.6611V20.3652C120.471 20.9121 120.528 21.3975 120.642 21.8213C120.76 22.2451 120.929 22.6029 121.147 22.8945C121.371 23.1862 121.642 23.4072 121.961 23.5576C122.28 23.7035 122.64 23.7764 123.041 23.7764C123.433 23.7764 123.754 23.7445 124.005 23.6807C124.256 23.6123 124.454 23.5326 124.6 23.4414C124.75 23.3457 124.866 23.2546 124.948 23.168V21.1924H122.877V19.9141H126.657ZM128.079 21.3838V21.2266C128.079 20.6934 128.157 20.1989 128.312 19.7432C128.466 19.2829 128.69 18.8841 128.981 18.5469C129.278 18.2051 129.638 17.9408 130.062 17.7539C130.49 17.5625 130.973 17.4668 131.511 17.4668C132.053 17.4668 132.536 17.5625 132.96 17.7539C133.388 17.9408 133.751 18.2051 134.047 18.5469C134.343 18.8841 134.569 19.2829 134.724 19.7432C134.879 20.1989 134.956 20.6934 134.956 21.2266V21.3838C134.956 21.917 134.879 22.4115 134.724 22.8672C134.569 23.3229 134.343 23.7217 134.047 24.0635C133.751 24.4007 133.391 24.665 132.967 24.8564C132.543 25.0433 132.062 25.1367 131.524 25.1367C130.982 25.1367 130.497 25.0433 130.068 24.8564C129.645 24.665 129.285 24.4007 128.988 24.0635C128.692 23.7217 128.466 23.3229 128.312 22.8672C128.157 22.4115 128.079 21.917 128.079 21.3838ZM129.727 21.2266V21.3838C129.727 21.7165 129.761 22.0309 129.829 22.3271C129.897 22.6234 130.005 22.8831 130.15 23.1064C130.296 23.3298 130.483 23.5052 130.711 23.6328C130.939 23.7604 131.21 23.8242 131.524 23.8242C131.83 23.8242 132.094 23.7604 132.317 23.6328C132.545 23.5052 132.732 23.3298 132.878 23.1064C133.024 22.8831 133.131 22.6234 133.199 22.3271C133.272 22.0309 133.309 21.7165 133.309 21.3838V21.2266C133.309 20.8984 133.272 20.5885 133.199 20.2969C133.131 20.0007 133.022 19.7386 132.871 19.5107C132.725 19.2829 132.538 19.1051 132.311 18.9775C132.087 18.8454 131.821 18.7793 131.511 18.7793C131.201 18.7793 130.932 18.8454 130.704 18.9775C130.481 19.1051 130.296 19.2829 130.15 19.5107C130.005 19.7386 129.897 20.0007 129.829 20.2969C129.761 20.5885 129.727 20.8984 129.727 21.2266ZM136.022 21.3838V21.2266C136.022 20.6934 136.1 20.1989 136.255 19.7432C136.41 19.2829 136.633 18.8841 136.925 18.5469C137.221 18.2051 137.581 17.9408 138.005 17.7539C138.433 17.5625 138.916 17.4668 139.454 17.4668C139.996 17.4668 140.48 17.5625 140.903 17.7539C141.332 17.9408 141.694 18.2051 141.99 18.5469C142.286 18.8841 142.512 19.2829 142.667 19.7432C142.822 20.1989 142.899 20.6934 142.899 21.2266V21.3838C142.899 21.917 142.822 22.4115 142.667 22.8672C142.512 23.3229 142.286 23.7217 141.99 24.0635C141.694 24.4007 141.334 24.665 140.91 24.8564C140.486 25.0433 140.006 25.1367 139.468 25.1367C138.925 25.1367 138.44 25.0433 138.012 24.8564C137.588 24.665 137.228 24.4007 136.932 24.0635C136.635 23.7217 136.41 23.3229 136.255 22.8672C136.1 22.4115 136.022 21.917 136.022 21.3838ZM137.67 21.2266V21.3838C137.67 21.7165 137.704 22.0309 137.772 22.3271C137.841 22.6234 137.948 22.8831 138.094 23.1064C138.24 23.3298 138.426 23.5052 138.654 23.6328C138.882 23.7604 139.153 23.8242 139.468 23.8242C139.773 23.8242 140.037 23.7604 140.261 23.6328C140.489 23.5052 140.675 23.3298 140.821 23.1064C140.967 22.8831 141.074 22.6234 141.143 22.3271C141.216 22.0309 141.252 21.7165 141.252 21.3838V21.2266C141.252 20.8984 141.216 20.5885 141.143 20.2969C141.074 20.0007 140.965 19.7386 140.814 19.5107C140.669 19.2829 140.482 19.1051 140.254 18.9775C140.031 18.8454 139.764 18.7793 139.454 18.7793C139.144 18.7793 138.875 18.8454 138.647 18.9775C138.424 19.1051 138.24 19.2829 138.094 19.5107C137.948 19.7386 137.841 20.0007 137.772 20.2969C137.704 20.5885 137.67 20.8984 137.67 21.2266ZM149.018 17.6035H150.515V24.7949C150.515 25.4603 150.373 26.0254 150.091 26.4902C149.808 26.9551 149.414 27.3083 148.908 27.5498C148.402 27.7959 147.817 27.9189 147.151 27.9189C146.869 27.9189 146.554 27.8779 146.208 27.7959C145.866 27.7139 145.534 27.5817 145.21 27.3994C144.891 27.2217 144.624 26.987 144.41 26.6953L145.183 25.7246C145.447 26.0391 145.739 26.2692 146.058 26.415C146.377 26.5609 146.712 26.6338 147.063 26.6338C147.441 26.6338 147.762 26.5632 148.026 26.4219C148.295 26.2852 148.503 26.0824 148.648 25.8135C148.794 25.5446 148.867 25.2165 148.867 24.8291V19.2783L149.018 17.6035ZM143.993 21.3838V21.2402C143.993 20.6797 144.062 20.1693 144.198 19.709C144.335 19.2441 144.531 18.8454 144.786 18.5127C145.041 18.1755 145.351 17.918 145.716 17.7402C146.08 17.5579 146.493 17.4668 146.953 17.4668C147.432 17.4668 147.84 17.5534 148.177 17.7266C148.519 17.8997 148.803 18.1481 149.031 18.4717C149.259 18.7907 149.437 19.1735 149.564 19.6201C149.697 20.0622 149.795 20.5544 149.858 21.0967V21.5547C149.799 22.0833 149.699 22.5664 149.558 23.0039C149.416 23.4414 149.23 23.8197 148.997 24.1387C148.765 24.4577 148.478 24.7038 148.136 24.877C147.799 25.0501 147.4 25.1367 146.939 25.1367C146.488 25.1367 146.08 25.0433 145.716 24.8564C145.356 24.6696 145.046 24.4076 144.786 24.0703C144.531 23.7331 144.335 23.3366 144.198 22.8809C144.062 22.4206 143.993 21.9215 143.993 21.3838ZM145.641 21.2402V21.3838C145.641 21.721 145.673 22.0355 145.736 22.3271C145.805 22.6188 145.907 22.8763 146.044 23.0996C146.185 23.3184 146.363 23.4915 146.577 23.6191C146.796 23.7422 147.053 23.8037 147.35 23.8037C147.737 23.8037 148.054 23.7217 148.3 23.5576C148.55 23.3936 148.742 23.1725 148.874 22.8945C149.011 22.612 149.106 22.2975 149.161 21.9512V20.7139C149.134 20.445 149.077 20.1943 148.99 19.9619C148.908 19.7295 148.797 19.5267 148.655 19.3535C148.514 19.1758 148.336 19.0391 148.122 18.9434C147.908 18.8431 147.655 18.793 147.363 18.793C147.067 18.793 146.81 18.8568 146.591 18.9844C146.372 19.112 146.192 19.2874 146.051 19.5107C145.914 19.734 145.812 19.9938 145.743 20.29C145.675 20.5863 145.641 20.903 145.641 21.2402ZM153.987 14.5V25H152.333V14.5H153.987ZM159.053 25.1367C158.506 25.1367 158.011 25.0479 157.569 24.8701C157.132 24.6878 156.758 24.4349 156.448 24.1113C156.143 23.7878 155.908 23.4072 155.744 22.9697C155.58 22.5322 155.498 22.0605 155.498 21.5547V21.2812C155.498 20.7025 155.582 20.1784 155.751 19.709C155.92 19.2396 156.154 18.8385 156.455 18.5059C156.756 18.1686 157.111 17.9111 157.522 17.7334C157.932 17.5557 158.376 17.4668 158.855 17.4668C159.383 17.4668 159.846 17.5557 160.242 17.7334C160.639 17.9111 160.967 18.1618 161.227 18.4854C161.491 18.8044 161.687 19.1849 161.814 19.627C161.947 20.069 162.013 20.5566 162.013 21.0898V21.7939H156.298V20.6113H160.386V20.4814C160.377 20.1852 160.317 19.9072 160.208 19.6475C160.103 19.3877 159.941 19.1781 159.723 19.0186C159.504 18.859 159.212 18.7793 158.848 18.7793C158.574 18.7793 158.33 18.8385 158.116 18.957C157.907 19.071 157.731 19.2373 157.59 19.4561C157.449 19.6748 157.339 19.9391 157.262 20.249C157.189 20.5544 157.152 20.8984 157.152 21.2812V21.5547C157.152 21.8783 157.196 22.179 157.282 22.457C157.373 22.7305 157.506 22.9697 157.679 23.1748C157.852 23.3799 158.062 23.5417 158.308 23.6602C158.554 23.7741 158.834 23.8311 159.148 23.8311C159.545 23.8311 159.898 23.7513 160.208 23.5918C160.518 23.4323 160.787 23.2067 161.015 22.915L161.883 23.7559C161.723 23.9883 161.516 24.2116 161.261 24.4258C161.006 24.6354 160.693 24.8063 160.324 24.9385C159.96 25.0706 159.536 25.1367 159.053 25.1367Z" fill="#1F1F1F"/>
</g>
<defs>
<clipPath id="clip0_2359_9632">
<rect width="175" height="40" fill="white"/>
</clipPath>
</defs>
</svg>
