<svg width="237" height="90" viewBox="0 0 237 90" fill="none" xmlns="http://www.w3.org/2000/svg">
<g clip-path="url(#clip0_1978_8636)">
<path d="M100.957 4.91845L95.7114 7.90278C95.626 7.95136 95.6087 8.06562 95.6761 8.1366L106.47 19.5115C106.527 19.5719 106.623 19.5755 106.686 19.521C107.886 18.4856 109.349 17.8915 109.943 17.6582C110.543 17.4224 112.233 16.8945 113.825 16.9022C113.886 16.9025 113.942 16.8677 113.967 16.8125L117.922 8.15272C117.976 8.03408 118.147 8.03408 118.201 8.15272L122.159 16.8185C122.183 16.8706 122.234 16.9049 122.292 16.9077C123.785 16.9821 125.43 17.362 126.18 17.6346C126.922 17.9043 128.16 18.5231 129.289 19.2484C129.351 19.2887 129.434 19.2791 129.485 19.2252L140.148 7.97865C140.213 7.90994 140.199 7.79993 140.119 7.74885L135.171 4.59368C135.109 4.55444 135.028 4.56368 134.977 4.61575L127.407 12.3678C127.333 12.4441 127.203 12.4231 127.158 12.3272L121.626 0.688485C121.601 0.635443 121.547 0.601562 121.487 0.601562H114.33C114.27 0.601562 114.216 0.635652 114.191 0.688941L108.777 12.1793C108.732 12.2744 108.605 12.2966 108.53 12.2225L101.142 4.94245C101.093 4.89415 101.017 4.88431 100.957 4.91845Z" fill="#2225CF"/>
<path d="M121.488 0.453125C121.607 0.453125 121.715 0.520977 121.766 0.627063L127.298 12.2656L134.868 4.51356C134.969 4.40941 135.132 4.39082 135.255 4.46934L140.203 7.62472C140.363 7.72688 140.391 7.94698 140.261 8.08431L129.598 19.3308C129.496 19.4387 129.33 19.4573 129.206 19.3774C128.084 18.6566 126.857 18.0434 126.128 17.7786C125.393 17.5114 123.763 17.1346 122.285 17.061C122.171 17.0553 122.067 16.9873 122.02 16.883L118.063 8.21729L114.108 16.8771C114.058 16.9877 113.945 17.0563 113.825 17.0557C112.26 17.0482 110.592 17.5689 110.001 17.801C109.409 18.0337 107.967 18.6199 106.788 19.6371C106.664 19.7439 106.474 19.7384 106.359 19.617L95.565 8.24235C95.4304 8.1004 95.4649 7.87163 95.6356 7.77448L100.881 4.79039C101.002 4.72208 101.153 4.74155 101.251 4.83815L108.639 12.1182L114.053 0.627948C114.103 0.521376 114.212 0.453125 114.331 0.453125H121.488Z" stroke="white"/>
<path d="M117.602 17.8125C117.602 17.8125 119.44 29.049 119.44 40.3031C119.44 51.5571 119.594 58.5672 119.594 58.5672C107.242 58.5672 97.0762 49.4439 97.0762 38.1899C97.0762 26.9358 105.251 17.8125 117.602 17.8125ZM112.296 23.4257L112.268 23.4313C111.111 23.7193 102.277 26.2398 101.554 36.217C101.186 41.2966 103.723 44.5545 106.48 46.5675C109.223 48.5708 112.192 49.3488 112.758 49.4847C112.759 49.4853 112.759 49.4856 112.759 49.4862L113.624 53.6039C113.66 53.779 113.843 53.8843 114.016 53.8306L116.667 53.0056C116.785 52.9687 116.869 52.8658 116.88 52.7441L118.211 37.7853C118.215 37.7391 118.208 37.6923 118.191 37.6492L112.62 23.6129L112.609 23.5884C112.552 23.4763 112.429 23.4056 112.296 23.4257Z" fill="#2225CF"/>
<mask id="mask0_1978_8636" style="mask-type:luminance" maskUnits="userSpaceOnUse" x="96" y="17" width="25" height="42">
<path d="M120.055 17.5078H96.7715V58.8663H120.055V17.5078Z" fill="white"/>
<path d="M117.604 17.8125C117.604 17.8125 119.442 29.049 119.442 40.3031C119.442 51.5571 119.595 58.5672 119.595 58.5672C107.244 58.5672 97.0781 49.4439 97.0781 38.1899C97.0781 26.9358 105.253 17.8125 117.604 17.8125ZM112.298 23.4257L112.269 23.4313C111.113 23.7193 102.279 26.2398 101.556 36.217C101.188 41.2966 103.725 44.5545 106.482 46.5675C109.225 48.5708 112.194 49.3488 112.76 49.4847C112.761 49.4853 112.761 49.4856 112.761 49.4862L113.626 53.6039C113.662 53.779 113.845 53.8843 114.018 53.8306L116.669 53.0056C116.787 52.9687 116.871 52.8658 116.882 52.7441L118.213 37.7853C118.217 37.7391 118.21 37.6923 118.193 37.6492L112.622 23.6129L112.611 23.5884C112.554 23.4763 112.431 23.4056 112.298 23.4257Z" fill="black"/>
</mask>
<g mask="url(#mask0_1978_8636)">
<path d="M117.604 17.8097L117.906 17.7617L117.865 17.5078H117.604V17.8097ZM119.595 58.5644V58.8663H119.908L119.901 58.5578L119.595 58.5644ZM112.298 23.4229L112.251 23.1245L112.245 23.1255L112.238 23.1268L112.298 23.4229ZM112.269 23.4285L112.21 23.1324L112.202 23.1339L112.194 23.1358L112.269 23.4285ZM112.76 49.4819L113.057 49.4064L113.011 49.2313L112.833 49.1884L112.76 49.4819ZM112.761 49.4834L113.061 49.4221L113.061 49.4212L112.761 49.4834ZM112.621 23.6101L112.907 23.5001L112.904 23.4936L112.901 23.4872L112.621 23.6101ZM112.61 23.5856L112.89 23.4627L112.887 23.457L112.885 23.4515L112.61 23.5856ZM117.604 17.8097C117.301 17.8577 117.301 17.8578 117.301 17.8578C117.301 17.8579 117.301 17.858 117.301 17.8582C117.302 17.8585 117.302 17.859 117.302 17.8596C117.302 17.8609 117.302 17.8629 117.303 17.8655C117.304 17.8709 117.305 17.8789 117.307 17.8896C117.31 17.9109 117.315 17.9429 117.322 17.9852C117.335 18.0697 117.355 18.1954 117.38 18.3594C117.43 18.6875 117.502 19.1692 117.588 19.7826C117.76 21.0093 117.989 22.7625 118.218 24.8669C118.677 29.0769 119.136 34.6879 119.136 40.3003H119.442H119.748C119.748 34.6586 119.288 29.0243 118.828 24.8025C118.597 22.691 118.367 20.9317 118.195 19.6999C118.108 19.084 118.036 18.5999 117.986 18.2696C117.961 18.1044 117.941 17.9777 117.927 17.8921C117.92 17.8493 117.915 17.8168 117.912 17.795C117.91 17.784 117.909 17.7758 117.908 17.7702C117.907 17.7674 117.907 17.7653 117.907 17.7639C117.907 17.7632 117.906 17.7626 117.906 17.7623C117.906 17.7621 117.906 17.7618 117.906 17.7617C117.906 17.7616 117.906 17.7617 117.604 17.8097ZM119.442 40.3003H119.136C119.136 45.9286 119.174 50.4959 119.212 53.6563C119.231 55.2364 119.251 56.4648 119.265 57.2983C119.272 57.7152 119.278 58.0331 119.282 58.2471C119.284 58.354 119.286 58.4349 119.287 58.4893C119.288 58.5161 119.288 58.5366 119.288 58.5502C119.289 58.5572 119.289 58.5623 119.289 58.5656C119.289 58.5674 119.289 58.5686 119.289 58.5696C119.289 58.5702 119.289 58.5705 119.289 58.5705C119.289 58.5705 119.289 58.5711 119.595 58.5644C119.901 58.5578 119.901 58.5578 119.901 58.5578C119.901 58.5578 119.901 58.5572 119.901 58.5566C119.901 58.556 119.901 58.5545 119.901 58.553C119.901 58.5496 119.901 58.5445 119.901 58.5376C119.901 58.524 119.9 58.5037 119.9 58.4769C119.899 58.4228 119.897 58.3422 119.895 58.2354C119.891 58.0219 119.885 57.7043 119.878 57.288C119.863 56.4554 119.844 55.2283 119.825 53.6491C119.787 50.4908 119.748 45.9259 119.748 40.3003H119.442ZM119.595 58.5644V58.2625C107.387 58.2625 97.3842 49.25 97.3842 38.1871H97.0778H96.7715C96.7715 49.6322 107.1 58.8663 119.595 58.8663V58.5644ZM97.0778 38.1871H97.3842C97.3842 27.0876 105.434 18.1116 117.604 18.1116V17.8097V17.5078C105.071 17.5078 96.7715 26.7784 96.7715 38.1871H97.0778ZM112.298 23.4229L112.238 23.1268L112.21 23.1324L112.269 23.4285L112.329 23.7247L112.357 23.719L112.298 23.4229ZM112.269 23.4285L112.194 23.1358C111.021 23.4279 101.989 26.0001 101.25 36.1928L101.556 36.2142L101.861 36.2357C102.569 26.4739 111.204 24.0051 112.344 23.7212L112.269 23.4285ZM101.556 36.2142L101.25 36.1928C100.872 41.4031 103.484 44.7513 106.299 46.8071L106.481 46.5647L106.664 46.3223C103.966 44.3519 101.503 41.1845 101.861 36.2357L101.556 36.2142ZM106.481 46.5647L106.299 46.8071C109.091 48.8458 112.106 49.6358 112.688 49.7753L112.76 49.4819L112.833 49.1884C112.281 49.0565 109.359 48.2903 106.664 46.3223L106.481 46.5647ZM112.76 49.4819L112.464 49.5573C112.467 49.5688 112.47 49.5788 112.473 49.5866C112.476 49.5945 112.478 49.6008 112.48 49.605C112.482 49.6093 112.484 49.6129 112.485 49.6141C112.485 49.615 112.485 49.6156 112.485 49.6156C112.486 49.6159 112.485 49.6156 112.485 49.6153C112.485 49.6147 112.484 49.6123 112.482 49.609C112.481 49.6056 112.479 49.6011 112.476 49.5954C112.472 49.5839 112.465 49.5667 112.461 49.5456L112.761 49.4834L113.061 49.4212C113.056 49.3997 113.05 49.3822 113.045 49.3708C113.043 49.3647 113.04 49.3599 113.039 49.3566C113.037 49.3532 113.036 49.3508 113.036 49.3499C113.035 49.3496 113.035 49.349 113.035 49.3493C113.035 49.3493 113.036 49.3499 113.036 49.3505C113.037 49.352 113.038 49.3551 113.04 49.3593C113.042 49.3635 113.045 49.3699 113.048 49.3774C113.05 49.3852 113.054 49.3949 113.057 49.4064L112.76 49.4819ZM112.761 49.4834L112.461 49.5446L113.325 53.6621L113.625 53.6011L113.925 53.5398L113.061 49.4221L112.761 49.4834ZM113.625 53.6011L113.325 53.6621C113.399 54.0126 113.764 54.2233 114.11 54.1155L114.018 53.8278L113.925 53.5398L113.625 53.6011ZM114.018 53.8278L114.11 54.1155L116.761 53.2908L116.669 53.0028L116.576 52.7151L113.925 53.5398L114.018 53.8278ZM116.669 53.0028L116.761 53.2908C116.997 53.2171 117.165 53.0109 117.187 52.7676L116.882 52.7413L116.576 52.7151L116.669 53.0028ZM116.882 52.7413L117.187 52.7676L118.518 37.8091L118.213 37.7825L117.908 37.7563L116.576 52.7151L116.882 52.7413ZM118.213 37.7825L118.518 37.8091C118.526 37.7158 118.512 37.6222 118.478 37.5365L118.193 37.6464L117.908 37.7563L118.213 37.7825ZM118.193 37.6464L118.478 37.5365L112.907 23.5001L112.621 23.6101L112.336 23.7201L117.908 37.7563L118.193 37.6464ZM112.621 23.6101L112.901 23.4872L112.89 23.4627L112.61 23.5856L112.33 23.7086L112.342 23.733L112.621 23.6101ZM112.61 23.5856L112.885 23.4515C112.773 23.2303 112.526 23.083 112.251 23.1245L112.298 23.4229L112.344 23.7212C112.344 23.7213 112.342 23.7215 112.34 23.7211C112.338 23.7208 112.337 23.7203 112.336 23.7199C112.336 23.7195 112.335 23.7193 112.336 23.7193C112.336 23.7194 112.336 23.7198 112.336 23.7201L112.61 23.5856Z" fill="white"/>
</g>
<path d="M117.635 17.8125C117.635 17.8125 138.59 17.8126 138.59 37.8883C138.59 57.9637 119.595 58.5675 119.595 58.5675C119.595 58.5675 118.98 55.9284 117.635 53.1713C116.488 50.8178 114.383 47.2012 114.022 44.214C113.237 37.7355 117.624 28.4842 117.635 28.4617V17.8125ZM125.726 27.2432C125.726 27.2444 125.726 27.2467 125.725 27.2494C125.725 27.2549 125.725 27.2634 125.724 27.2748C125.722 27.2977 125.719 27.3324 125.715 27.3785C125.706 27.4709 125.691 27.6092 125.664 27.7901C125.609 28.152 125.507 28.6848 125.321 29.3623C124.946 30.7173 124.229 32.6526 122.858 34.963C121.485 37.2763 120.634 38.601 120.151 39.6791C119.661 40.7731 119.544 41.6223 119.622 42.9883C119.779 45.7576 122.421 48.8244 126.032 48.8244C129.656 48.8241 131.848 45.7422 132.004 42.9883C132.082 41.6223 131.965 40.7731 131.475 39.6791C130.991 38.601 130.141 37.2763 128.768 34.963C127.397 32.6536 126.713 30.7194 126.372 29.3656C126.201 28.6886 126.116 28.1565 126.074 27.7951C126.053 27.6144 126.042 27.4763 126.037 27.3842C126.034 27.3381 126.033 27.3034 126.032 27.2807C126.032 27.2693 126.032 27.2607 126.032 27.2553V27.2482L125.726 27.2421V27.2432Z" fill="#EE1B24"/>
<mask id="mask1_1978_8636" style="mask-type:luminance" maskUnits="userSpaceOnUse" x="113" y="17" width="27" height="43">
<path d="M139.049 17.5078H113.621V59.1682H139.049V17.5078Z" fill="white"/>
<path d="M117.635 17.8125C117.635 17.8125 138.59 17.8126 138.59 37.8883C138.59 57.9637 119.595 58.5675 119.595 58.5675C119.595 58.5675 118.98 55.9284 117.635 53.1713C116.488 50.8178 114.383 47.2012 114.022 44.214C113.237 37.7355 117.624 28.4842 117.635 28.4617V17.8125ZM125.726 27.2432C125.726 27.2444 125.726 27.2467 125.725 27.2494C125.725 27.2549 125.725 27.2634 125.724 27.2748C125.722 27.2977 125.719 27.3324 125.715 27.3785C125.706 27.4709 125.691 27.6092 125.664 27.7901C125.609 28.152 125.507 28.6848 125.321 29.3623C124.946 30.7173 124.229 32.6526 122.858 34.963C121.485 37.2763 120.634 38.601 120.151 39.6791C119.661 40.7731 119.544 41.6223 119.622 42.9883C119.779 45.7576 122.421 48.8244 126.032 48.8244C129.656 48.8241 131.848 45.7422 132.004 42.9883C132.082 41.6223 131.965 40.7731 131.475 39.6791C130.991 38.601 130.141 37.2763 128.768 34.963C127.397 32.6536 126.713 30.7194 126.372 29.3656C126.201 28.6886 126.116 28.1565 126.074 27.7951C126.053 27.6144 126.042 27.4763 126.037 27.3842C126.034 27.3381 126.033 27.3034 126.032 27.2807C126.032 27.2693 126.032 27.2607 126.032 27.2553V27.2482L125.726 27.2421V27.2432Z" fill="black"/>
</mask>
<g mask="url(#mask1_1978_8636)">
<path fill-rule="evenodd" clip-rule="evenodd" d="M117.635 17.8097V17.5078H117.328V17.8097H117.635ZM119.595 58.5647L119.296 58.6323L119.353 58.8745L119.605 58.8663L119.595 58.5647ZM117.635 28.4589L117.912 28.5867L117.941 28.526V28.4589H117.635ZM125.725 27.2404L126.031 27.2547L126.032 27.2476V27.2404H125.725ZM126.032 27.2525H125.725V27.2566L126.032 27.2525ZM126.032 27.2454H126.338V26.9497L126.038 26.9436L126.032 27.2454ZM125.725 27.2393L125.732 26.9374L125.419 26.9311V27.2393H125.725ZM117.635 17.8097C117.635 18.1116 117.635 18.1116 117.635 18.1116C117.635 18.1116 117.635 18.1116 117.635 18.1116C117.636 18.1116 117.636 18.1116 117.637 18.1116C117.64 18.1116 117.643 18.1116 117.648 18.1116C117.657 18.1117 117.671 18.1119 117.69 18.1122C117.728 18.1128 117.785 18.1139 117.86 18.1163C118.01 18.1211 118.231 18.1308 118.514 18.1501C119.079 18.1887 119.888 18.2662 120.86 18.4214C122.805 18.732 125.393 19.3526 127.978 20.5907C130.562 21.8284 133.135 23.6797 135.062 26.4499C136.988 29.2179 138.283 32.9212 138.283 37.8855H138.589H138.896C138.896 32.812 137.571 28.9869 135.568 26.1085C133.566 23.2324 130.901 21.3196 128.246 20.0477C125.592 18.7764 122.942 18.1422 120.958 17.8254C119.965 17.6669 119.137 17.5875 118.556 17.5478C118.266 17.5279 118.037 17.5179 117.88 17.5129C117.802 17.5104 117.741 17.5091 117.7 17.5085C117.679 17.5081 117.663 17.508 117.652 17.5079C117.647 17.5078 117.643 17.5078 117.64 17.5078C117.638 17.5078 117.637 17.5078 117.636 17.5078C117.636 17.5078 117.636 17.5078 117.635 17.5078C117.635 17.5078 117.635 17.5078 117.635 17.8097ZM138.589 37.8855H138.283C138.283 47.8055 133.602 52.8796 128.941 55.4909C126.601 56.8017 124.259 57.4954 122.5 57.8613C121.621 58.0443 120.889 58.1448 120.378 58.1994C120.123 58.2269 119.923 58.2429 119.788 58.252C119.72 58.2565 119.668 58.2592 119.634 58.2607C119.617 58.2616 119.605 58.2622 119.596 58.2625C119.592 58.2628 119.589 58.2628 119.587 58.2628C119.586 58.2628 119.586 58.2628 119.585 58.2628C119.585 58.2628 119.585 58.2628 119.585 58.2631C119.585 58.2631 119.585 58.2628 119.595 58.5647C119.605 58.8663 119.605 58.8663 119.605 58.8663C119.606 58.8663 119.606 58.8663 119.606 58.8663C119.607 58.8663 119.608 58.8663 119.61 58.8663C119.612 58.8663 119.616 58.866 119.621 58.8657C119.631 58.8654 119.646 58.8648 119.665 58.8639C119.702 58.8621 119.758 58.8591 119.829 58.8542C119.972 58.8446 120.18 58.828 120.444 58.7996C120.972 58.7431 121.724 58.6396 122.626 58.4521C124.428 58.0775 126.834 57.3656 129.244 56.0159C134.079 53.3068 138.896 48.0413 138.896 37.8855H138.589ZM119.595 58.5647C119.894 58.4971 119.894 58.4971 119.894 58.4971C119.894 58.4971 119.893 58.4965 119.893 58.4965C119.893 58.4959 119.893 58.4953 119.893 58.4947C119.893 58.4932 119.892 58.4911 119.892 58.4883C119.89 58.4829 119.888 58.4748 119.886 58.4645C119.881 58.4437 119.873 58.4132 119.863 58.3736C119.843 58.2942 119.814 58.1786 119.774 58.0313C119.694 57.7372 119.574 57.3167 119.411 56.8096C119.087 55.7961 118.592 54.4328 117.911 53.0378L117.635 53.1685L117.359 53.2992C118.023 54.661 118.508 55.996 118.827 56.9913C118.987 57.4888 119.104 57.9003 119.182 58.1871C119.221 58.3305 119.25 58.4425 119.269 58.5182C119.278 58.5563 119.285 58.5853 119.29 58.6043C119.292 58.6139 119.294 58.6212 119.295 58.6257C119.295 58.6281 119.296 58.6299 119.296 58.6308C119.296 58.6314 119.296 58.6317 119.296 58.632C119.296 58.6323 119.296 58.6323 119.296 58.6323C119.296 58.6323 119.296 58.6323 119.595 58.5647ZM117.635 53.1685L117.911 53.0378C117.327 51.8405 116.527 50.3745 115.813 48.8041C115.101 47.2394 114.501 45.6222 114.326 44.1756L114.021 44.2112L113.717 44.2471C113.904 45.7874 114.536 47.4722 115.254 49.0508C115.969 50.6239 116.795 52.143 117.359 53.2992L117.635 53.1685ZM114.021 44.2112L114.326 44.1756C113.941 41.0034 114.824 37.1226 115.822 34.005C116.816 30.8971 117.91 28.5918 117.912 28.5867L117.635 28.4589L117.357 28.331C117.349 28.3484 116.243 30.6803 115.238 33.8233C114.235 36.9566 113.317 40.9409 113.717 44.2471L114.021 44.2112ZM117.635 28.4589H117.941V17.8097H117.635H117.328V28.4589H117.635ZM125.725 27.2404L125.419 27.2261C125.419 27.227 125.419 27.2278 125.419 27.2281C125.419 27.2286 125.419 27.2289 125.419 27.2292C125.419 27.2298 125.419 27.2301 125.419 27.2303L125.725 27.2466L126.031 27.2629C126.031 27.2604 126.031 27.2582 126.031 27.2567C126.031 27.2559 126.031 27.2551 126.031 27.2547C126.031 27.2542 126.031 27.2545 126.031 27.2547L125.725 27.2404ZM125.725 27.2466L125.419 27.2303C125.418 27.2369 125.418 27.2429 125.418 27.2519L125.723 27.272L126.029 27.2921C126.03 27.2783 126.031 27.2673 126.031 27.2629L125.725 27.2466ZM125.723 27.272L125.418 27.2519C125.416 27.2716 125.414 27.3036 125.41 27.3478L125.715 27.3757L126.02 27.4037C126.024 27.3556 126.027 27.3181 126.029 27.2921L125.723 27.272ZM125.715 27.3757L125.41 27.3478C125.401 27.435 125.387 27.5678 125.36 27.743L125.663 27.7873L125.966 27.8316C125.994 27.645 126.01 27.5013 126.02 27.4037L125.715 27.3757ZM125.663 27.7873L125.36 27.743C125.307 28.0937 125.208 28.6147 125.025 29.2803L125.32 29.3595L125.616 29.4388C125.806 28.7492 125.91 28.2048 125.966 27.8316L125.663 27.7873ZM125.32 29.3595L125.025 29.2803C124.657 30.6109 123.95 32.5216 122.593 34.8077L122.858 34.9602L123.122 35.1123C124.508 32.7782 125.235 30.818 125.616 29.4388L125.32 29.3595ZM122.858 34.9602L122.593 34.8077C121.231 37.1039 120.363 38.4554 119.871 39.5543L120.151 39.6763L120.431 39.7982C120.905 38.741 121.739 37.4435 123.122 35.1123L122.858 34.9602ZM120.151 39.6763L119.871 39.5543C119.356 40.7021 119.236 41.6008 119.315 43.0022L119.621 42.9856L119.927 42.9686C119.852 41.6379 119.965 40.8388 120.431 39.7982L120.151 39.6763ZM119.621 42.9856L119.315 43.0022C119.481 45.9163 122.243 49.1235 126.032 49.1235V48.8216V48.5197C122.598 48.5197 120.076 45.5929 119.927 42.9686L119.621 42.9856ZM126.032 48.8216V49.1235C129.861 49.1232 132.147 45.8707 132.31 43.0022L132.004 42.9856L131.698 42.9686C131.548 45.6083 129.451 48.5194 126.032 48.5197V48.8216ZM132.004 42.9856L132.31 43.0022C132.389 41.6008 132.269 40.7021 131.754 39.5543L131.474 39.6763L131.194 39.7982C131.661 40.8388 131.773 41.6379 131.698 42.9686L132.004 42.9856ZM131.474 39.6763L131.754 39.5543C131.262 38.4554 130.394 37.1039 129.032 34.8077L128.767 34.9602L128.503 35.1123C129.886 37.4435 130.72 38.741 131.194 39.7982L131.474 39.6763ZM128.767 34.9602L129.032 34.8077C127.677 32.5243 127.003 30.6172 126.669 29.29L126.371 29.3628L126.074 29.4355C126.422 30.8159 127.117 32.7772 128.503 35.1123L128.767 34.9602ZM126.371 29.3628L126.669 29.29C126.501 28.6262 126.419 28.1069 126.378 27.7577L126.073 27.7923L125.769 27.8269C125.813 28.2006 125.9 28.7454 126.074 29.4355L126.371 29.3628ZM126.073 27.7923L126.378 27.7577C126.357 27.5833 126.347 27.4511 126.342 27.3645L126.037 27.3814L125.731 27.3982C125.736 27.496 125.747 27.64 125.769 27.8269L126.073 27.7923ZM126.037 27.3814L126.342 27.3645C126.34 27.3216 126.339 27.2898 126.338 27.2696L126.032 27.2779L125.726 27.2861C125.727 27.3115 125.728 27.349 125.731 27.3982L126.037 27.3814ZM126.032 27.2779L126.338 27.2696C126.338 27.2581 126.338 27.2515 126.338 27.2484L126.032 27.2525L125.725 27.2566C125.725 27.2643 125.725 27.2748 125.726 27.2861L126.032 27.2779ZM126.032 27.2525H126.338V27.2454H126.032H125.725V27.2525H126.032ZM126.032 27.2454L126.038 26.9436L125.732 26.9374L125.725 27.2393L125.719 27.5411L126.025 27.5472L126.032 27.2454ZM125.725 27.2393H125.419V27.2404H125.725H126.032V27.2393H125.725Z" fill="white"/>
</g>
</g>
<path d="M20.852 87.14C20.1053 87.14 19.41 87.0187 18.766 86.776C18.1313 86.524 17.576 86.174 17.1 85.726C16.6333 85.2687 16.2693 84.732 16.008 84.116C15.7467 83.5 15.616 82.828 15.616 82.1C15.616 81.372 15.7467 80.7 16.008 80.084C16.2693 79.468 16.638 78.936 17.114 78.488C17.59 78.0307 18.1453 77.6807 18.78 77.438C19.4147 77.186 20.11 77.06 20.866 77.06C21.6687 77.06 22.4013 77.2 23.064 77.48C23.7267 77.7507 24.2867 78.1567 24.744 78.698L23.568 79.804C23.2133 79.4213 22.8167 79.1367 22.378 78.95C21.9393 78.754 21.4633 78.656 20.95 78.656C20.4367 78.656 19.9653 78.74 19.536 78.908C19.116 79.076 18.7473 79.314 18.43 79.622C18.122 79.93 17.8793 80.294 17.702 80.714C17.534 81.134 17.45 81.596 17.45 82.1C17.45 82.604 17.534 83.066 17.702 83.486C17.8793 83.906 18.122 84.27 18.43 84.578C18.7473 84.886 19.116 85.124 19.536 85.292C19.9653 85.46 20.4367 85.544 20.95 85.544C21.4633 85.544 21.9393 85.4507 22.378 85.264C22.8167 85.068 23.2133 84.774 23.568 84.382L24.744 85.502C24.2867 86.034 23.7267 86.44 23.064 86.72C22.4013 87 21.664 87.14 20.852 87.14ZM25.0537 87L29.4637 77.2H31.2558L35.6797 87H33.7758L29.9817 78.166H30.7097L26.9297 87H25.0537ZM27.0837 84.732L27.5737 83.304H32.8658L33.3557 84.732H27.0837ZM37.2061 87V77.2H39.0261V85.46H44.1501V87H37.2061ZM44.4946 87L48.9046 77.2H50.6966L55.1206 87H53.2166L49.4226 78.166H50.1506L46.3706 87H44.4946ZM46.5246 84.732L47.0146 83.304H52.3066L52.7966 84.732H46.5246ZM56.6469 87V77.2H58.1449L62.4289 84.354H61.6449L65.8589 77.2H67.3569L67.3709 87H65.6489L65.6349 79.902H65.9989L62.4149 85.88H61.6029L57.9629 79.902H58.3829V87H56.6469ZM70.298 87V77.2H74.89C76.066 77.2 76.962 77.4333 77.578 77.9C78.194 78.3573 78.502 78.9733 78.502 79.748C78.502 80.2707 78.3807 80.7187 78.138 81.092C77.8954 81.456 77.5687 81.7407 77.158 81.946C76.7567 82.142 76.318 82.24 75.842 82.24L76.094 81.736C76.6447 81.736 77.1394 81.8387 77.578 82.044C78.0167 82.24 78.362 82.5293 78.614 82.912C78.8754 83.2947 79.006 83.7707 79.006 84.34C79.006 85.18 78.684 85.8333 78.04 86.3C77.396 86.7667 76.4394 87 75.17 87H70.298ZM72.118 85.572H75.058C75.7394 85.572 76.262 85.46 76.626 85.236C76.99 85.012 77.172 84.6527 77.172 84.158C77.172 83.6727 76.99 83.318 76.626 83.094C76.262 82.8607 75.7394 82.744 75.058 82.744H71.978V81.33H74.694C75.3287 81.33 75.814 81.218 76.15 80.994C76.4954 80.77 76.668 80.434 76.668 79.986C76.668 79.5287 76.4954 79.188 76.15 78.964C75.814 78.74 75.3287 78.628 74.694 78.628H72.118V85.572ZM79.8424 87L84.2524 77.2H86.0444L90.4684 87H88.5644L84.7704 78.166H85.4984L81.7184 87H79.8424ZM81.8724 84.732L82.3624 83.304H87.6544L88.1444 84.732H81.8724ZM98.4539 87L95.2059 77.2H97.0959L99.9939 86.062H99.0559L102.066 77.2H103.746L106.672 86.062H105.762L108.73 77.2H110.466L107.218 87H105.286L102.612 79.006H103.116L100.4 87H98.4539ZM110.528 87L114.938 77.2H116.73L121.154 87H119.25L115.456 78.166H116.184L112.404 87H110.528ZM112.558 84.732L113.048 83.304H118.34L118.83 84.732H112.558ZM124.176 87V78.74H120.928V77.2H129.244V78.74H125.996V87H124.176ZM130.89 87V77.2H138.044V78.726H132.71V85.474H138.24V87H130.89ZM132.57 82.772V81.274H137.442V82.772H132.57ZM140.549 87V77.2H144.567C145.874 77.2 146.896 77.508 147.633 78.124C148.38 78.74 148.753 79.594 148.753 80.686C148.753 81.4047 148.585 82.0253 148.249 82.548C147.913 83.0613 147.432 83.458 146.807 83.738C146.191 84.0087 145.449 84.144 144.581 84.144H141.557L142.369 83.318V87H140.549ZM146.961 87L144.483 83.444H146.429L148.921 87H146.961ZM142.369 83.514L141.557 82.646H144.497C145.3 82.646 145.902 82.4733 146.303 82.128C146.714 81.7827 146.919 81.302 146.919 80.686C146.919 80.0607 146.714 79.58 146.303 79.244C145.902 78.908 145.3 78.74 144.497 78.74H141.557L142.369 77.844V83.514ZM155.218 87V77.2H159.502C160.566 77.2 161.5 77.4053 162.302 77.816C163.105 78.2267 163.73 78.796 164.178 79.524C164.626 80.252 164.85 81.1107 164.85 82.1C164.85 83.08 164.626 83.9387 164.178 84.676C163.73 85.404 163.105 85.9733 162.302 86.384C161.5 86.7947 160.566 87 159.502 87H155.218ZM157.038 85.46H159.418C160.146 85.46 160.781 85.32 161.322 85.04C161.864 84.76 162.279 84.368 162.568 83.864C162.867 83.36 163.016 82.772 163.016 82.1C163.016 81.4187 162.867 80.8307 162.568 80.336C162.279 79.832 161.864 79.44 161.322 79.16C160.781 78.88 160.146 78.74 159.418 78.74H157.038V85.46ZM167.065 87V77.2H168.885V87H167.065ZM174.854 87.14C174.088 87.14 173.356 87.0327 172.656 86.818C171.956 86.594 171.4 86.3093 170.99 85.964L171.62 84.55C172.012 84.858 172.497 85.1147 173.076 85.32C173.654 85.5253 174.247 85.628 174.854 85.628C175.367 85.628 175.782 85.572 176.1 85.46C176.417 85.348 176.65 85.1987 176.8 85.012C176.949 84.816 177.024 84.5967 177.024 84.354C177.024 84.0553 176.916 83.8173 176.702 83.64C176.487 83.4533 176.207 83.3087 175.862 83.206C175.526 83.094 175.148 82.9913 174.728 82.898C174.317 82.8047 173.902 82.6973 173.482 82.576C173.071 82.4453 172.693 82.282 172.348 82.086C172.012 81.8807 171.736 81.61 171.522 81.274C171.307 80.938 171.2 80.5087 171.2 79.986C171.2 79.454 171.34 78.9687 171.62 78.53C171.909 78.082 172.343 77.7273 172.922 77.466C173.51 77.1953 174.252 77.06 175.148 77.06C175.736 77.06 176.319 77.1347 176.898 77.284C177.476 77.4333 177.98 77.648 178.41 77.928L177.836 79.342C177.397 79.0807 176.944 78.8893 176.478 78.768C176.011 78.6373 175.563 78.572 175.134 78.572C174.63 78.572 174.219 78.6327 173.902 78.754C173.594 78.8753 173.365 79.034 173.216 79.23C173.076 79.426 173.006 79.65 173.006 79.902C173.006 80.2007 173.108 80.4433 173.314 80.63C173.528 80.8073 173.804 80.9473 174.14 81.05C174.485 81.1527 174.868 81.2553 175.288 81.358C175.708 81.4513 176.123 81.5587 176.534 81.68C176.954 81.8013 177.332 81.96 177.668 82.156C178.013 82.352 178.288 82.618 178.494 82.954C178.708 83.29 178.816 83.7147 178.816 84.228C178.816 84.7507 178.671 85.236 178.382 85.684C178.102 86.1227 177.668 86.4773 177.08 86.748C176.492 87.0093 175.75 87.14 174.854 87.14ZM182.751 87V78.74H179.503V77.2H187.819V78.74H184.571V87H182.751ZM189.465 87V77.2H193.483C194.79 77.2 195.812 77.508 196.549 78.124C197.296 78.74 197.669 79.594 197.669 80.686C197.669 81.4047 197.501 82.0253 197.165 82.548C196.829 83.0613 196.349 83.458 195.723 83.738C195.107 84.0087 194.365 84.144 193.497 84.144H190.473L191.285 83.318V87H189.465ZM195.877 87L193.399 83.444H195.345L197.837 87H195.877ZM191.285 83.514L190.473 82.646H193.413C194.216 82.646 194.818 82.4733 195.219 82.128C195.63 81.7827 195.835 81.302 195.835 80.686C195.835 80.0607 195.63 79.58 195.219 79.244C194.818 78.908 194.216 78.74 193.413 78.74H190.473L191.285 77.844V83.514ZM199.986 87V77.2H201.806V87H199.986ZM209.272 87.14C208.526 87.14 207.83 87.0187 207.186 86.776C206.552 86.524 205.996 86.174 205.52 85.726C205.054 85.2687 204.69 84.732 204.428 84.116C204.167 83.5 204.036 82.828 204.036 82.1C204.036 81.372 204.167 80.7 204.428 80.084C204.69 79.468 205.058 78.936 205.534 78.488C206.01 78.0307 206.566 77.6807 207.2 77.438C207.835 77.186 208.53 77.06 209.286 77.06C210.089 77.06 210.822 77.2 211.484 77.48C212.147 77.7507 212.707 78.1567 213.164 78.698L211.988 79.804C211.634 79.4213 211.237 79.1367 210.798 78.95C210.36 78.754 209.884 78.656 209.37 78.656C208.857 78.656 208.386 78.74 207.956 78.908C207.536 79.076 207.168 79.314 206.85 79.622C206.542 79.93 206.3 80.294 206.122 80.714C205.954 81.134 205.87 81.596 205.87 82.1C205.87 82.604 205.954 83.066 206.122 83.486C206.3 83.906 206.542 84.27 206.85 84.578C207.168 84.886 207.536 85.124 207.956 85.292C208.386 85.46 208.857 85.544 209.37 85.544C209.884 85.544 210.36 85.4507 210.798 85.264C211.237 85.068 211.634 84.774 211.988 84.382L213.164 85.502C212.707 86.034 212.147 86.44 211.484 86.72C210.822 87 210.084 87.14 209.272 87.14ZM216.834 87V78.74H213.586V77.2H221.902V78.74H218.654V87H216.834Z" fill="#2E3092"/>
<defs>
<clipPath id="clip0_1978_8636">
<rect width="53" height="64" fill="white" transform="translate(92)"/>
</clipPath>
</defs>
</svg>
